<?xml version="1.0" encoding="UTF-8"?> <svg xmlns="http://www.w3.org/2000/svg" id="Layer_1" data-name="Layer 1" viewBox="0 0 13240 4953.91"> <title>STA-logo</title> <path d="M3115.39-365.47c-1.73-41.65-1-83.58-5.74-124.89-8.92-77.94-56.08-131.59-130.18-146.78-30.46-6.24-62.85-6.53-94.11-4.85-94.13,5-150.23,52.87-163.5,146.16-12.34,86.71-9.74,174.47-.71,261.75a141.73,141.73,0,0,0,4,21c16.19,62.16,53.18,104.38,116.94,120,44.13,10.81,88.56,11.2,133.19,2.23,63.51-12.75,107-49.1,125.55-111.11,8-26.92,10.46-55.85,12.66-84.08C3115.53-312.35,3114.9-365.45,3115.39-365.47ZM2987.16-264.1c-.29,32.92-17.17,55.45-45.91,64.81-31.21,10.17-69.73,1.75-86.2-22-7.57-10.92-9.14-26-13.37-39.23a10.2,10.2,0,0,1-.06-3q0-50.31,0-100.6h-.1c0-33.53,1-67.11-.23-100.59-2-52.29,40.69-71.91,73.85-70.94,36.65,1.07,72,21.92,72.15,70.4C2987.42-398.23,2987.75-331.16,2987.16-264.1Z" transform="translate(6420.5 2064.36)"></path> <path d="M3115.47-1248.61c-1.74-41.65-1-83.58-5.74-124.89-8.92-77.94-56.08-131.59-130.18-146.78-30.47-6.24-62.85-6.52-94.11-4.85-94.13,5.05-150.23,52.87-163.5,146.16-12.34,86.71-9.74,174.47-.71,261.75a140.45,140.45,0,0,0,4,21c16.19,62.16,53.18,104.38,116.94,120,44.13,10.81,88.56,11.2,133.19,2.23,63.51-12.75,107-49.1,125.54-111.11,8-26.92,10.47-55.85,12.67-84.08C3115.61-1195.49,3115-1248.59,3115.47-1248.61Zm-128.23,101.37c-.29,32.92-17.17,55.45-45.91,64.82-31.21,10.16-69.73,1.74-86.2-22-7.57-10.93-9.15-26-13.38-39.23a10.61,10.61,0,0,1-.06-3v-100.6h-.1c0-33.53,1-67.11-.24-100.59-2-52.29,40.7-71.91,73.86-70.94,36.65,1.07,72.05,21.92,72.15,70.4C2987.5-1281.37,2987.83-1214.3,2987.24-1147.24Z" transform="translate(6420.5 2064.36)"></path> <path d="M770.77,679.51c-53.75-13.81-107.7-11.35-159.49,7.42-45.68,16.55-79.06,49.38-101.95,92.32-3.29,6.18-5.33,13.23-6.88,20.12-2.81,12.42,2.45,20.09,15.38,20.63,14.24.59,28.65-1,42.76.44,25.58,2.71,43.9-4.23,58.55-27.64,14.78-23.62,38.91-35.71,68.22-31.87,23.24,3.05,38,21.7,36.51,44.89-2,31.67-12.18,44.76-43,54.77-8.7,2.82-17.71,4.69-26.55,7.1-47.51,13-92.43,32.21-133.56,59.21-53.89,35.38-89.13,83.21-92.67,149.89-2.64,49.54,24.28,78.41,73.82,82,44.32,3.17,84.76-7.64,122.5-30.37,7.33-4.41,15.21-7.91,22.89-11.86,3.78,5.46,6.14,7.64,7,10.31,8.1,24.46,8,24.58,33.26,24.9q21.39.29,42.79,0c25.84-.41,28.42-2.41,34.28-28.8,22.28-100.42,44.69-200.81,66.3-301.38,4-18.76,7-38.38,6.21-57.43C835.3,719.25,811.92,690.09,770.77,679.51ZM691.55,949.18q-5.5,33.09-12.4,65.94c-1.44,6.78-3.5,15.12-8.29,19.23-24.88,21.33-51.55,39.84-81.62,42.2-36.1-.45-55-25.33-40.71-53.66a143.52,143.52,0,0,1,42.77-50.1c23.68-17,51.17-29.15,77.87-41.56C686.48,923.18,694.66,930.44,691.55,949.18Z" transform="translate(6420.5 2064.36)"></path> <path d="M-380.89-1067.77c0,164-.54,328.06.27,492.08.32,64.19,4.16,128.3,22.88,190.46,19,63.09,46.6,121.31,91.53,170.75,62.1,68.31,140.6,108.09,228.89,126.73,132.52,28,265.44,27.4,395.55-14.34C463.38-135.83,545-199.83,596-299.78c42.31-82.85,56-171.92,56.16-263.46q.75-537.93.28-1075.87c0-31.58-3-34.67-35.15-34.75q-117.67-.27-235.35,0c-30.9.08-34.25,3.6-34.25,36q0,533.36-.19,1066.7c0,28.3-3.87,56.84-8.49,84.85-9.83,59.5-41.7,104.47-97.9,127.33-74,30.1-149.07,30.68-222-4.89-30.84-15.05-53.79-38.46-68.76-70.77-19.82-42.74-26.74-87.19-26.72-133.56q.21-533.34.19-1066.7c0-6.11.08-12.22-.14-18.33-.5-13.7-8.11-20.13-21.43-20.47q-7.64-.21-15.27-.21l-229.24,0c-4.07,0-8.16-.21-12.22.07-20.8,1.44-25,5.41-26.48,25.36-.37,5.06,0,10.18,0,15.27Q-380.93-1350.49-380.89-1067.77Z" transform="translate(6420.5 2064.36)"></path> <path d="M1393-70.84c67.8,1.77,135.15-7,200.65-28.54,91.57-30.09,169-80.15,224.23-160.76,41.76-61,63.73-129.2,72.16-202.28,9.15-79.45.87-156.8-29-231-41-102-113.49-178.73-204.08-237.24-73.47-47.45-151.41-88-226.92-132.32-50.84-29.86-103.8-56.25-149.26-95-57.9-49.3-74.14-109.67-52.72-181.34,11.33-37.9,34.55-66.49,69.36-85.51,67.91-37.11,160.35-25.11,215.81,28.81,37.18,36.15,63.2,79.29,78.86,129,10.06,31.93,13.81,33.57,46,24.36,69.53-19.89,138.83-40.6,208.4-60.37,28.2-8,31.22-11.74,22.89-40.81-21.94-76.57-58.54-145.51-111.84-204.71-42.07-46.72-91.87-84.38-150.89-106.88-131.1-50-264.73-50.54-399.39-15.52-91.33,23.75-164.7,73.22-218.27,151.71-34.62,50.73-54.58,107.22-64.6,166.85-10,59.47-12.89,120,0,179.4,21.07,96.76,76.47,172.28,152.92,232.79,89.93,71.17,191.59,123.44,291.8,178,58.26,31.74,113.95,67.23,160.67,115.46,42,43.3,60.6,92.86,59.75,154.34C1588-376,1467.44-294.21,1355.72-328.31c-62.59-19.1-109.44-58.95-137.49-117.73-17-35.61-28.52-73.87-41.86-111.18-6.82-19-9.82-22.55-28.15-18.61-82.63,17.73-165.22,35.65-247.63,54.4-27.39,6.23-30.3,11.33-19.86,38.79,18.06,47.53,35.31,95.71,58,141.06C980-259.14,1038.31-190.7,1117.88-141.7,1202.08-89.84,1293.8-68.21,1393-70.84Z" transform="translate(6420.5 2064.36)"></path> <path d="M3219.05,241.47H6781c5.09,0,10.19,0,15.28-.07,14.79-.31,22.63-7.6,22.63-22.7,0-21.4.08-42.8,0-64.2-.07-14.87-7.86-22.68-22.6-23-16.3-.32-32.61-.13-48.92-.13q-3543.61,0-7087.22-.06c-7.13,0-14.29-.14-21.37.51-11.69,1.09-19.13,7.49-19.33,19.57-.38,23.43-.3,46.87.11,70.3.22,12.07,7.24,18.61,19.21,19.42,6.09.41,12.22.28,18.33.28Q1438.08,241.43,3219.05,241.47Z" transform="translate(6420.5 2064.36)"></path> <path d="M3345.1-1465c-1.67-16.77-2.71-24.66-3.19-32.58-.74-12.41-7.44-18.72-19.49-18.73-27.49,0-55,.08-82.48.75-13.62.33-19.82,8.81-20.12,22-.14,6.11,0,12.22,0,18.33q0,229.18-.08,458.36c0,6.1-.09,12.23.3,18.31.76,11.74,6.8,19.75,18.82,20,29.52.62,59.07.58,88.59.16,11.86-.17,18.71-7.29,19.5-19.27.53-8.12.48-16.28.47-24.42q0-165-.1-330c0-38.15,25.26-70.07,62.39-79.07,21.06-5.11,36.92,2.46,42.9,23.26,3.58,12.44,4.15,26.07,4.18,39.17q.42,171.12.12,342.24c0,8.15-.47,16.35.26,24.43,1.67,18.57,5.83,23,24.66,23.83,20.34.85,40.74.34,61.11.27,34-.12,36.94-2.84,37-36.26.06-110,1.73-220.06-1.08-330-.94-36.48,14.07-57.64,42.08-74.14,15.7-9.24,32-20.33,51.32-10.8,20.26,10,18.28,29.74,18.49,48.09,0,1,0,2,0,3.05q-.07,177.24-.13,354.47c0,7.13-.42,14.3.18,21.38,1.58,18.43,6.06,23.48,24.41,24.15,22.38.82,44.82.3,67.22.09,31.56-.28,34.38-3.18,34.38-35.44q0-187.92-.25-375.85c0-14.21.44-29-3.34-42.47-5.43-19.28-11.33-39.82-22.71-55.75-28.29-39.58-85.51-52.19-132.34-29.44-21.65,10.52-40.45,27-60.37,41-7.94,5.59-15.41,11.85-25.22,19.46-6.94-10.44-11.77-17.88-16.77-25.21-22.63-33.24-53.32-48.8-94-44.1-30.55,3.52-55.82,17.7-79.67,35.8C3372-1482.47,3361.27-1475.92,3345.1-1465Z" transform="translate(6420.5 2064.36)"></path> <path d="M2304.36-451.43h.21c0-54-1.18-108,.32-161.92,1.56-56.1,34.06-85.67,89.87-85a143.37,143.37,0,0,1,15.24.8c38.08,4.58,63.31,28.55,69.26,66.36,1.58,10,1.9,20.27,2.34,30.43.64,14.86,8.06,22.46,23,22.48,30.55,0,61.12.73,91.64-.31,17.7-.61,23.13-7.13,22.49-25.62a308.73,308.73,0,0,0-5.5-48.5C2598.84-725.62,2562.38-781,2488.44-805c-60.81-19.74-122.7-20.12-183.53-2.35-64.17,18.76-108.25,60.82-123.79,127A498.7,498.7,0,0,0,2167.69-578c-1.87,84.49-.87,169.05-.38,253.58a500.48,500.48,0,0,0,4.31,63.93c12,89.15,63.87,149.38,149.28,169,56.28,13,113.21,11.83,168.79-7.21,45.51-15.59,79.95-44.33,101.72-87.17,22.72-44.7,28.93-93,27.34-142.45-.62-19-5.3-23.91-23.72-24.44q-44.27-1.26-88.59,0c-20.3.59-23.53,4.95-24.59,26.54-.89,18.29-.66,36.68-2.57,54.86-2.1,20-10.3,38.63-27.84,48.83-34.75,20.21-72,22.23-108.34,4.5-31.85-15.53-37.37-46-38.46-77.65-.31-9.16-.27-18.33-.27-27.49Q2304.33-387.27,2304.36-451.43Z" transform="translate(6420.5 2064.36)"></path> <path d="M2304.66-1334.52h-.1c0-53-.94-106,.24-158.93,1.47-66.11,45.44-100,110.47-86.92,40.46,8.15,61.39,31.56,65.35,73.28.67,7.1.88,14.24,1.21,21.36.68,14.85,8.51,22.32,23.27,22.37,29.55.11,59.11.75,88.63-.1,20.6-.59,26.42-7.84,24.87-29.51a363.14,363.14,0,0,0-6.29-48.46c-15.86-75.83-57.23-129.06-134.21-151.08-49.14-14-99.1-15.07-148.28-5.31-78.44,15.57-133,60.32-151,141.13-6.39,28.6-10.76,58.23-11.23,87.46-1.43,89.64-.68,179.31-.46,269,.09,34.8,4.41,69,16.15,102.07,18.71,52.78,51.73,92.41,104.8,112.33C2354.32-961,2422-961,2488.92-982.26c47.75-15.16,83.38-46.3,104.81-92.21,20.72-44.38,26.67-91.67,25.07-140-.63-18.78-5.63-24-23.86-24.5q-44.28-1.27-88.63,0c-20.06.58-23.47,5.1-24.51,26.73-.89,18.31-.86,36.67-2.14,54.94-1.89,26.95-16.6,46.34-40.48,56.79-31.17,13.64-63.51,13.7-94.58-1.31-30.62-14.79-39.36-42.68-39.75-73.72C2304.17-1228.56,2304.66-1281.54,2304.66-1334.52Z" transform="translate(6420.5 2064.36)"></path> <path d="M3715.72-364.09h.07q0,117.6,0,235.22c0,31.41,3.41,34.72,35.15,35,20.37.18,40.74.37,61.09-.2,26-.73,30.09-4.73,30.31-30.62.34-39.71,0-79.42,0-119.14q0-114.55-.08-229.11c0-14.4-.78-29.44,12.25-39.14,15.45-11.5,30.89-23.68,48-32.07,27.34-13.36,53.6.4,60.82,30.41,2.34,9.73,2,20.21,2.06,30.35.15,58,0,116.08,0,174.12,0,61.1-.25,122.2,0,183.29.09,27.76,4.08,31.59,31.84,32.05,19.34.32,38.69.07,58-.07,35.34-.27,38.29-3.18,38.3-38.31q0-184.81-.2-369.63c0-16.23-1.62-32.53-3.62-48.65-9.28-74.65-77.3-103-136.92-90.62-33,6.88-59.87,24.57-86,44.34C3845-580.33,3839-583,3835.55-610.37c-2.68-21-4.9-23.32-26.9-23.88-19.34-.48-38.69-.29-58-.13-31.82.26-34.78,3.06-34.84,35.07Q3715.53-481.71,3715.72-364.09Z" transform="translate(6420.5 2064.36)"></path> <path d="M6037.79-1473.84c-1.37-8.31-3.12-15-3.47-21.83-.7-13.76-7.84-20.51-21.21-20.64-26.46-.27-52.93-.22-79.4-.29-13.42,0-21,6.36-21.72,20-.31,6.1-.23,12.21-.24,18.32q0,230.6,0,461.19c0,6.11,0,12.22.35,18.31.71,13.39,7.71,20.54,21.32,20.6,18.32.08,36.64,0,55,.07,49.6.19,49.56.2,49.53-48.1q-.12-163.39-.21-326.81c0-15.4-.93-31.18,12.83-42,13.55-10.69,26.72-22.39,41.74-30.55,32.5-17.67,62-3.55,69.1,32.51,2.74,13.85,2.95,28.34,3,42.55q.26,163.4,0,326.8c0,8.14-.16,16.3.26,24.43.68,13.23,7.66,20.83,21.17,20.95,26.46.25,52.93.17,79.4.08,13.47,0,20.72-7.09,21.63-20.45.42-6.08.42-12.2.42-18.3,0-125.23.17-250.45-.21-375.68a278.28,278.28,0,0,0-4.56-51.57c-9.63-50-42.17-77.76-92.54-81.91-40.52-3.34-76.37,7.53-108.6,32C6069.4-1485.13,6059-1472.66,6037.79-1473.84Z" transform="translate(6420.5 2064.36)"></path> <path d="M3470.67-144.54c2.82,10.21,5.08,15.65,5.75,21.27,3.24,27.12,4.71,28.93,31.38,29.36,21.38.35,42.79.54,64.15-.29,19.12-.74,22.7-4.79,24.38-23.78.53-6.07.23-12.21.23-18.32q0-227.64,0-455.28c0-7.12-.2-14.25-.21-21.38,0-15.47-8.16-21.71-23.09-21.52q-38.19.47-76.38,0c-15-.19-23,6.17-23.06,21.58,0,10.18-.26,20.36-.26,30.55,0,108,.34,215.92-.35,323.88-.08,12.46-1.93,29.06-9.81,36.45a219.9,219.9,0,0,1-57.62,38.78c-23.07,10.65-45.61-1.25-52.85-25.76-4.24-14.34-5.33-30-5.38-45.12-.4-112-.18-224.07-.18-336.1,0-8.15,0-16.3-.35-24.43-.55-12.14-7.29-19.08-19.25-19.24q-44.3-.6-88.59,0c-12,.14-18.64,7.08-19.27,19.18-.31,6.1-.22,12.22-.22,18.33,0,119.16-.21,238.33.29,357.49A471.1,471.1,0,0,0,3225-172c7.53,50.86,43.7,82.24,95.16,87.43,46,4.63,83.14-14.21,118.65-39.63C3448.22-130.89,3458.28-136.65,3470.67-144.54Z" transform="translate(6420.5 2064.36)"></path> <path d="M-299.72,1162.76c28.71-5.37,58.36-8.08,86.22-16.64,94-28.87,156.82-116.25,155-211.34C-59,906.33-67.13,881-84,857.89c-20.91-28.57-48.47-49.13-77.67-68.07-23.91-15.51-48.76-29.88-71.1-47.42-43.07-33.83-40.7-79.22,4.14-111.33,42.47-30.42,90.75-14.63,107.19,35.1,1,2.89,1.26,6,2.23,8.89,6.23,18.63,10.51,21.79,28.77,17.56,23.81-5.51,47.34-12.24,71-18.37,12.91-3.35,18.2-11.67,17.33-24.8C-5.58,597.59-38.95,539.2-94.85,525.34a316.14,316.14,0,0,0-75.23-9.09c-104.75,0-186.68,62.39-214.16,162.82-14.89,54.41-5,103.63,39.41,141.53,20,17.09,42.73,31,64.23,46.34,23.13,16.52,48.23,30.9,69,50,37,34.07,38,70.07,2.51,113.25-20,24.39-48.74,34.25-79.88,26.53-32.26-8-48.05-32.22-52.86-64.16-.6-4-.69-8.13-1.26-12.16-1.9-13.35-9.35-20.6-23-17.92-26,5.09-51.79,10.9-77.6,16.72-13.63,3.08-20.7,11.37-20.59,26,.37,46.65,24.83,119.67,92,142.34C-349.57,1155.28-325,1157.65-299.72,1162.76Z" transform="translate(6420.5 2064.36)"></path> <path d="M4202.4-362.78c0,36.67-1.34,73.4.27,110,3.76,85.64,52.47,144.67,134.61,163.08a279.77,279.77,0,0,0,118.42.81c77.14-16,123-63.71,135.68-138.76,2-12,3.26-24.25,4.1-36.43,1.46-21.22-2.12-26-22.85-26.73-25.43-.89-50.93-.73-76.39-.12-23.11.55-26.38,3.22-26.71,27.06-.37,27.8-8.27,50.05-35.55,61.79-30.69,13.21-59.72,10.07-86.69-9.46-14-10.14-22-24.21-22.05-41.66-.22-73.34-.87-146.7.28-220,.48-30.68,22.52-53.71,53-58.08a145.82,145.82,0,0,1,42.49.53c24.57,3.81,39.67,19.54,45.76,43.48,1.75,6.84,2,14.09,2.75,21.16,1.46,13.27,9,20.28,22.13,20.44,26.48.32,53,.22,79.45.25,15,0,23-7.71,22.59-22.57-1.78-58.79-23.53-124.35-93.62-155.94a229.07,229.07,0,0,0-107.19-20.14c-28.2,1.56-57.48,5.4-83.79,15-71.62,26.2-102.65,83.13-106.41,156.28C4200.82-436.21,4202.38-399.46,4202.4-362.78Z" transform="translate(6420.5 2064.36)"></path> <path d="M5073.43-1526.86c-11.93,1-26.26,1.25-40.27,3.52-111.44,18.07-164.15,140.72-100.85,234.16,24.45,36.09,61.86,54.71,98.9,74.21,32.26,17,64.87,33.75,95.16,53.88,18.5,12.3,27.56,32.87,20.06,56.46-6.35,19.94-27.08,32.64-53.38,33.47-41.65,1.3-69.5-19.62-86.46-55.94-6.11-13.07-11.72-24.65-28.65-20.15-24.57,6.54-49,13.72-73.34,21.06-12.44,3.76-15.62,12.32-9.61,23.72,22.92,43.52,47.72,85.35,92.35,111,50,28.72,103.49,29.2,157,17.12,63.7-14.37,106.33-52.44,120.18-119.1,13.16-63.37-4.48-115.74-57-152.92-31.31-22.16-66.15-39.58-100.36-57.27-25.41-13.13-51.71-24.46-70.4-47.12-16.39-19.89-16.14-35.74-.41-54.9s37.79-24.57,63.57-15.6c23.34,8.13,38.92,25,51.61,45.43,13.81,22.21,14.11,22.11,38.61,13,15.25-5.71,30.47-11.5,45.59-17.53,26.42-10.53,29.06-17.83,14.61-43.55C5212.12-1492,5154.13-1526.63,5073.43-1526.86Z" transform="translate(6420.5 2064.36)"></path> <path d="M2131.88,1438c-3.38-3.58-4.41-4.18-4.68-5a41.28,41.28,0,0,1-2.2-8.63c-2.15-24.81-2.4-25.25-26.39-25.82-13.23-.32-26.48-.17-39.72-.06-32.38.26-34.7,3-41.9,35.52-16.29,73.54-33.7,146.82-49.87,220.38-14,63.64-27.15,127.46-40.12,191.32-4.25,20.92,0,26,20.85,26.94,16.26.77,32.58.36,48.87.24,31.49-.22,33-1.25,40.33-33.2,22-96.26,45.74-192.17,64.49-289.06,8.71-45,39.39-61.88,74.81-75.71,22.69-8.86,40.42,5,41.92,29.53a78.56,78.56,0,0,1-2.07,21.18c-12.75,58.68-25.53,117.37-38.79,175.94-10.79,47.65-22.49,95.1-33.34,142.74-4.88,21.4,0,27.41,22.69,28.4,15.25.66,30.55.24,45.83.17,35.25-.16,38.15-3.1,45.87-38.8,21.51-99.46,43.8-198.76,64.85-298.32,5.45-25.76,9.8-52.18,10.51-78.41.93-34.37-16.86-56.51-50.35-62.79-18.44-3.46-39.15-3.79-57,1.08-24.18,6.6-46.69,19.43-69.79,29.85C2147.9,1429.38,2139.5,1434.09,2131.88,1438Z" transform="translate(6420.5 2064.36)"></path> <path d="M991,1831.78c3,3.87,4.06,4.59,4.22,5.48a46.59,46.59,0,0,1,1,8.93c-.42,25.67-.16,26.15,24,26.53,16.28.26,32.59.3,48.87,0,23.68-.51,27.31-3.46,33.77-26.65,1.9-6.86,3-13.94,4.55-20.89q28.62-126.54,57.29-253.08c11-48.64,22.17-97.25,32.69-146,4.46-20.62.1-26.43-20.6-27.29-21.35-.89-42.76-.26-64.14-.1-14.17.1-22.82,7.25-25.82,21.15-1.08,5-2.19,9.94-3.27,14.92-20.93,96.48-41.49,193-63.23,289.36-3,13.25-8.9,28.73-18.69,36.91-16.08,13.45-35.63,23.82-55.23,31.76-24.55,9.93-44.55-6.79-43.25-33.72.29-6.06,1.66-12.11,3-18.06q17.86-80.49,35.93-160.93c11.42-50.63,23.26-101.17,34.47-151.84,5.23-23.67.64-29.16-23.68-29.73-16.28-.39-32.58-.18-48.88,0-29.14.25-35,4.79-40.86,33.75-4.63,22.93-7.45,46.25-12.51,69.07-20.45,92.41-41.85,184.61-61.86,277.11-3.16,14.59-3,30.65-.75,45.47,4.23,27.74,21,46.24,49,51.86,28.49,5.71,57,4.92,83.6-8.33,17.28-8.59,33.76-18.77,50.84-27.77C978,1836.2,985.16,1834.08,991,1831.78Z" transform="translate(6420.5 2064.36)"></path> <path d="M4147.48,722.21c-1.09-14-1.76-19.88-2-25.75-.38-11.58-7.13-16.33-17.74-16.39q-32.07-.17-64.14.29c-11.55.15-19.22,6-22.42,17.14-2,6.83-3.38,13.83-5,20.77Q4011,829.93,3985.77,941.58q-20.55,90.82-41.1,181.66c-5,22-.85,27.61,22,28.37,19.33.64,38.7.56,58,.05,22.44-.59,25.47-2.93,30.92-25.57,9.3-38.59,18.32-77.26,26.73-116.06,13.59-62.67,26.18-125.57,40.23-188.15,2.54-11.34,7.42-24.89,15.85-31.61a267.44,267.44,0,0,1,57.08-34.57c22.28-10,43.09,5.57,43.82,30.28.18,6-1.08,12.17-2.4,18.09q-35.64,159.39-71.59,318.69c-5.11,22.5-2.05,28.18,20.35,28.92,19.33.64,38.7.55,58,0,23.75-.69,29.22-5.79,34-30.31,3.86-20,6.68-40.19,11.1-60,19.67-88.45,40.36-176.68,59.28-265.29a268.85,268.85,0,0,0,5.15-66.65c-1.31-31.17-17.49-48.07-48.1-54.55-43.26-9.16-82.64,1.52-119.39,24.65C4175,706.23,4163.93,712.45,4147.48,722.21Z" transform="translate(6420.5 2064.36)"></path> <path d="M2562.85,523.92v.1H2401c-36.86,0-37-.06-47,36.62-4,14.72-7.26,29.65-10.28,44.6-4.14,20.53-.27,26.06,20.77,26.63,26.44.72,52.93-.38,79.38,0,30,.49,33.73,5.77,27.14,35.06Q2452,751.83,2433,836.73q-31.32,139.95-62.64,279.91c-7.13,31.67-4.8,34.85,28.6,35.09,15.27.1,30.54-.1,45.8,0,34.73.11,38.22-2.19,45.7-35,11.09-48.61,21.52-97.36,32.44-146,23.18-103.2,46.26-206.41,69.9-309.51,6.24-27.22,9.27-29,37.49-29.31,27.47-.31,55-.17,82.43.23,16.89.24,26.5-7.32,30-23.93,4.44-20.88,10.21-41.49,14.41-62.41,3-15.11-1.28-20-17.23-21.64-6.05-.64-12.21-.21-18.31-.21Z" transform="translate(6420.5 2064.36)"></path> <path d="M5483-1567.25h.06c0-7.13,0-14.25,0-21.37,0-8.14.37-16.3,0-24.42-1-24.46-4.67-28.41-28.67-28.92-20.35-.44-40.71-.22-61.06,0-28.29.33-32.15,3.77-32.56,31.3s.22,55,.15,82.42c-.08,29.53-.06,30.32-28.69,35.57-14.92,2.74-21.24,10.41-21.33,24.59-.12,17.3,0,34.6,0,51.9,0,14.89,7.66,21,22.25,23.36,25.39,4,26.78,6.57,27.74,30.68.24,6.1,0,12.21,0,18.32,0,90.56-.39,181.13.1,271.7.27,51.14,18.62,78.38,62.2,94,38.38,13.74,78.26,11.14,117.86,8.47,15.09-1,23.61-10.32,23.32-26.58-.32-18.3.46-36.63,0-54.93-.6-22.54-4-25.71-26.7-28.17-42.32-4.59-54.3-17.66-54.58-60.85-.28-44.77,0-89.55,0-134.32,0-26.46-.14-52.92-.06-79.37.11-35.6,3.26-38.79,37.71-39.1,8.13-.07,16.3.19,24.39-.5,11.79-1,18.8-7.73,19-19.74.35-19.32.55-38.67-.17-58-.56-15-10.16-21.35-24.4-21.39-10.17,0-20.38.89-30.51.32-19.65-1.11-24.92-6.23-25.86-26.16C5482.39-1534.66,5483-1551,5483-1567.25Z" transform="translate(6420.5 2064.36)"></path> <path d="M2708,1562.12v.05c10.18,0,20.36,0,30.54,0,13.21,0,22.31-6.11,22.45-19.53.26-25.34,2.27-51.35-2.58-75.87-5.5-27.77-22.85-50.15-51.3-60.06-16.26-5.66-33-11.77-49.93-13.42-118.74-11.56-205.21,30.22-238.49,149.36-10.94,39.15-19.45,79-28.08,118.78-6.24,28.77-13.19,57.7-15.7,86.92-6.38,74.3,32.79,121.46,107,128.39,28.12,2.63,57.34,2.5,85.14-2,88.17-14.3,135.38-78.1,155.27-153.43,4-15.28-.39-21-16.08-22.11-18.25-1.22-36.64-.74-54.95-.54-28.78.32-29.45,1-38.73,28.25-12.6,37-39.63,55.73-78.46,54.26-40.15-1.52-57.16-23.17-48.39-62.18q19.1-84.9,38.71-169.66c5-21.56,15.23-39.92,35.14-51.38,23.69-13.63,48.93-15.26,73.26-4.18,21.46,9.76,26.17,28.94,21.88,51.54-2.2,11.6,6.21,16.38,16.7,16.71C2683.59,1562.41,2695.82,1562.12,2708,1562.12Z" transform="translate(6420.5 2064.36)"></path> <path d="M3218.34,1159c98.61-.12,165.2-50,187-138.6,10.56-43,0-79.74-33.13-107.46-21.59-18.05-47.76-30.56-71.46-46.19-16.85-11.11-34.65-21.58-49-35.47-14.52-14.06-13.31-27.27-2.1-44.17,23.14-34.91,67.18-36.3,92.15-2.46,5.36,7.26,8.88,16,12.67,24.26,4,8.68,10.21,13.28,19.38,10,21.05-7.54,41.91-15.66,62.66-24,12.08-4.86,16.66-13.53,13-26.87-12.88-46.81-40.21-79.34-88.68-91.46-32.35-8.08-64.68-6.16-96.9.82-66.34,14.37-108.41,56.15-124.82,120.23-13.72,53.59-4.61,92.51,46.82,127.33,15.14,10.25,31.46,18.74,47.17,28.14,14.83,8.88,30.35,16.85,44.16,27.1,16.23,12,28.16,28,21.45,49.82-7,22.71-24.45,34.44-47.24,38-36.36,5.76-59.63-9-72.43-45.17-8.05-22.74-10.41-24-32.86-18-17.69,4.77-35.53,9.07-53,14.52-19.44,6.06-22.79,12.13-16.44,31.74C3097.37,1115,3130.07,1163.29,3218.34,1159Z" transform="translate(6420.5 2064.36)"></path> <path d="M144.27,1879.29c13.18-1.1,26.46-1.56,39.53-3.4C265.75,1864.37,327,1800.05,333,1718.08c2.27-30.63-4.61-59.7-30-79.61-22.24-17.45-46.41-32.49-70.14-48-14.43-9.42-30.81-16.14-44.26-26.7-32.66-25.67-29-57.67,7.52-77.67,20.21-11.06,40.06-9.2,56.82,5.41,9.55,8.34,17,20.11,22.61,31.68,6.62,13.58,14.71,18.45,29,12.91,18-7,36.48-12.93,54.23-20.56,16.31-7,19.62-14.34,14.29-31.59-12.76-41.3-37.38-71.51-80.26-85-40.58-12.72-80.21-9-120.09,3.15-55.12,16.86-90.14,53.62-107.68,107.5-18.76,57.59-2,104.78,48.59,137.5,18.78,12.13,39.09,21.86,58.16,33.56,13.79,8.46,28.21,16.81,39.68,28,19.58,19,16.92,46.47-4,64.1-37.24,31.42-87.94,17.72-103.87-28.06-8.73-25.09-9.28-25.59-34.41-19.4-17.79,4.39-35.64,8.74-53,14.4-18.29,6-21.65,12-15.84,29.42C23.55,1838.6,56.46,1881.83,144.27,1879.29Z" transform="translate(6420.5 2064.36)"></path> <path d="M525.31,1878.75c102.65-.32,170.64-52.87,190.07-146.59,6.91-33.32-.73-62.19-23.31-87.84-21.36-24.25-48-40.2-76.18-55.1a284,284,0,0,1-56.75-40c-6.54-5.89-10-21.17-7.49-30.12,10.81-38.76,58.93-51.91,88.63-24.66,8.63,7.93,14.5,19.37,20,30,6.18,12,14,16.62,27.05,11.69,18.11-6.81,36.67-12.49,54.55-19.86,16.68-6.88,20.53-14.3,15.58-31.14-10.82-36.81-31.19-65.86-68.17-81.27-45.92-19.14-91.43-15.26-137.38-.18-58.92,19.33-92.33,61.68-106.36,119.8-11.3,46.79,1.35,87.38,41.88,115.76,21.6,15.12,45.46,27,67.87,41,13.74,8.58,28.17,16.91,39.64,28.06,20.6,20,18.6,45.3-2.73,63.87-37.41,32.57-87.62,18.2-104.22-29.83-7.24-21-9.51-22.69-30.72-17.86-18.86,4.3-37.69,9-56.09,15s-21.54,11.78-16.15,29.45C404,1831.08,437.18,1882.5,525.31,1878.75Z" transform="translate(6420.5 2064.36)"></path> <path d="M4996.65-452.79h0q0,160.41,0,320.8c0,6.11-.25,12.24.23,18.32,1,12,8,19,19.7,19.21q42.75.76,85.51,0c13.59-.23,19.92-8.61,20-21.9.05-5.09,0-10.18,0-15.27q0-319.28-.08-638.54c0-6.11,0-12.22-.18-18.32-.49-13.46-7.67-20.9-21-21.08q-41.23-.55-82.47-.09c-13.16.17-20.78,7.29-21.39,20.82-.32,7.12-.28,14.25-.28,21.38Q4996.64-610.13,4996.65-452.79Z" transform="translate(6420.5 2064.36)"></path> <path d="M1837.2,1151.76v.13c10.19,0,20.39.42,30.54-.09,21.56-1.1,25.87-4.23,30.74-26.25,14.71-66.57,28.82-133.28,43.2-199.92,7.73-35.82,15-71.75,23.49-107.39,5.6-23.52,10.75-27,32.9-28.31,40.1-2.28,40.11-2.28,48.36-42.37,1.23-6,2.7-11.94,3.59-18,3.68-25,.74-28.73-23.75-30.58-5.06-.39-10.23-.07-15.19-1-10.83-1.94-15-8.94-14.49-19.72,1.92-40.74,20.74-61.87,60.85-65.49,14.14-1.27,23.17-6.24,26.58-20.13,4.13-16.79,9-33.46,12-50.46,2.71-15.71-2.9-22.18-18.68-25.52-81.62-17.3-150.28,23.44-175.46,104.52-5.43,17.47-10,35.25-14.11,53.1-3.41,14.86-11.73,22.19-27,24.45-29.37,4.34-29.18,5-35.56,34.85-2.34,11-5.45,21.72-7.89,32.65-3,13.26,1.15,20.74,15.83,23.54,27.09,5.18,28.13,7.33,22.37,33.74-6.94,31.82-14.44,63.51-21.75,95.25-15.78,68.42-31.74,136.81-47.29,205.29-4.68,20.59-.35,26.2,20.2,27.52C1816.81,1152.29,1827,1151.76,1837.2,1151.76Z" transform="translate(6420.5 2064.36)"></path> <path d="M3495.48,781.12c5.49,3.76,7.71,6.12,10.42,7,29.68,9.67,29.91,10.41,22.91,40.14-11.42,48.51-22.78,97-33.49,145.72-7.65,34.74-15.86,69.49-20.85,104.65-8,56.43,27.52,74.26,63.9,78.5,25.1,2.93,50.76,1.21,76.18,1.16,14.29,0,22.37-8.08,25.36-21.73,2.61-11.93,5.17-23.87,8-35.74,7.68-32.25,7.73-32.24-24.61-39.54-20.63-4.66-29.37-12.59-29.76-29-.19-8,1.42-16.22,3.19-24.12q21.27-95.26,43-190.44c5.17-22.54,10.51-26.62,33.21-27.85,46-2.49,46-2.5,55.07-49.25,1-5,2.4-9.9,3.2-14.91,3.31-20.76-.5-25.57-21.22-26.83-4.05-.24-8.14.28-12.2.16-26.42-.81-30.6-6-25-31.27,5.24-23.84,11.16-47.55,15.74-71.52,3.65-19.06-.32-24-19.86-24.82-20.31-.85-40.69.11-61-.31-17.05-.35-26.49,7.37-29.56,24.13-4.2,23-9.81,45.73-13.37,68.8-3.13,20.33-10.28,34.06-33.81,35.71-7.2.5-17.78,8.42-19.91,15.14C3504,736.76,3500.24,759.63,3495.48,781.12Z" transform="translate(6420.5 2064.36)"></path> <path d="M935.8,1151.76v-.13c3.06,0,6.11,0,9.17,0,44.54.16,44.26.1,53.5-43.1,17.68-82.58,35.35-165.17,53.67-247.61,23-103.29,46.58-206.43,69.86-309.65,4.91-21.76.91-26.73-22.64-27.35-14.24-.38-28.5.13-42.75.09-38.22-.08-38.66.44-46.71,36.52q-47.55,213-95.36,426c-10.25,45.68-20.8,91.29-31.15,136.94-5,22.17-1.21,27.22,21.88,28.26C915.43,1152.14,925.62,1151.76,935.8,1151.76Z" transform="translate(6420.5 2064.36)"></path> <path d="M5652-1251h.07q0,27.48,0,55c0,61.06-.27,122.13-.05,183.19.12,31.29,3.65,34.42,35.55,34.69,19.34.16,38.68.35,58,.13,28.42-.33,33-4,33.05-31q.43-239.67.09-479.35c0-23.49-4.88-27.68-29.3-28.07-20.35-.32-40.71,0-61.06,0-33.24-.13-36.33,2.87-36.34,36.5Q5651.93-1365.45,5652-1251Z" transform="translate(6420.5 2064.36)"></path> <path d="M4720.64-365.52h-.2v238.38c0,4.08-.12,8.16.06,12.22.6,13.49,7.84,20.75,21.22,20.86q41.25.32,82.5-.22c13.59-.2,20.13-8.26,20.71-21.43.27-6.11.22-12.22.22-18.33q0-230.74,0-461.49c0-5.09.28-10.22-.15-15.28-1.61-18.88-5.05-22.74-24.57-23.38-22.39-.73-44.82-.27-67.23-.11-30.27.22-32.52,2.55-32.53,33.46Q4720.58-483.18,4720.64-365.52Z" transform="translate(6420.5 2064.36)"></path> <path d="M1406.42,1404c-5.83-2.5-8.56-4.63-11.35-4.72-17.3-.51-34.62-.71-51.93-.75-35.83-.09-39.44,2.74-47.17,37.32q-14,62.63-27.75,125.31-31.14,141.76-62.13,283.58c-4.84,22.27-1,27,22.51,27.9,14.24.55,28.53.09,42.79.06,35.7-.07,39.44-2.86,47.17-37.45q29.31-131.21,58.28-262.48c14.35-65.62,36.62-81.32,102.87-69.55,15.06,2.67,24.11-1.39,27.55-15.87,5.86-24.77,11.82-49.57,16.21-74.63,2.88-16.41-4.42-23.22-21.15-19.78-26.13,5.37-50.9,14.48-71.35,32.83-6.38,5.73-12,14.86-24.55,8.47Z" transform="translate(6420.5 2064.36)"></path> <path d="M3768.79,1151.68c5.09,0,10.19,0,15.28,0,38.13.1,39.47-1.74,47.91-39.55,21.94-98.33,44.76-196.47,66.78-294.78,8.23-36.74,15.87-73.63,22.48-110.69,3.59-20.17-1.62-25.62-22.39-26.4-19.32-.72-38.69.14-58-.23-12.74-.25-21.69,4.31-25.61,16.94-2.41,7.77-5.37,15.43-7.1,23.35q-39.95,183.43-79.64,366.94c-2.8,12.93-6.35,25.71-8.89,38.69-3.79,19.39-.24,24.32,18.67,25.62C3748.39,1152.27,3758.61,1151.7,3768.79,1151.68Z" transform="translate(6420.5 2064.36)"></path> <path d="M4784.52-839.43v-.13c-14.19,0-28.37-.1-42.55,0-13.22.12-21.25,6.44-21.42,20.13-.3,24.3-.23,48.61,0,72.92.12,13.38,7.19,20.8,20.71,20.9,27.34.2,54.69.14,82,0,13.25-.07,21.24-6.69,21.47-20.21.43-24.3.39-48.61.13-72.92-.14-13.37-7.33-20.54-20.87-20.68C4810.85-839.54,4797.68-839.43,4784.52-839.43Z" transform="translate(6420.5 2064.36)"></path> <path d="M5717.89-1723.18c-14.18,0-28.4-.75-42.51.19-18.12,1.2-22.8,6.09-23.38,24.68-.65,21.24-.75,42.55.24,63.77.82,17.7,6.4,22.94,24.56,24,16.15.92,32.39.18,48.59.23,53.33.18,53.34.19,53.19-52.9C5778.39-1725.84,5787.46-1723.83,5717.89-1723.18Z" transform="translate(6420.5 2064.36)"></path> <path d="M3913.07,500.38v-.18h-21.4c-29.52.06-35,4.35-41.63,32.92-3.24,13.87-6.61,27.72-9.53,41.67-3.63,17.35-.06,23.62,16.83,24.5,22.35,1.16,44.94,1.73,67.15-.43,8.36-.81,20.29-8.33,23-15.61,7.38-19.9,11.27-41.18,15.4-62.13,2.35-11.9-3.3-20-16.2-20.63C3935.49,500,3924.27,500.38,3913.07,500.38Z" transform="translate(6420.5 2064.36)"></path> <path d="M6818.81-1503.18c-.89-19.21-9.83-26.93-27.91-20.11a198.65,198.65,0,0,0-52.39,29.86c-27,21.39-26.34,22.67-54.63,3-57.89-40.21-120.86-45-186.77-26.17-48.92,14-79,47.52-95.73,94.92-14.22,40.36-15,81.79-13.59,123.74,1.78,53.66,15,102.68,54.7,141.61a74.82,74.82,0,0,1,6.17,6.79c7.64,9.59,7.47,18.38-2.59,26.38-9.55,7.61-19.61,14.75-28.19,23.35-32.14,32.26-32.89,72.75-2.64,106.3,6.57,7.29,13,14.7,22.37,25.29-16,11.72-27.72,19.62-38.67,28.48-40.41,32.7-41.22,80.7,1.31,110.63,21,14.79,46.87,24.41,71.91,31.47,48.59,13.69,99.1,12.62,148.84,9,46.74-3.42,92.91-11.74,134.66-36.11,43.65-25.47,61.39-63.78,57.57-112.69-4.11-52.64-32.35-85.59-83.19-101-35.66-10.81-72-12.34-108.64-14.78q-47.13-3.16-94-9.37c-12.55-1.64-23.75-8.18-22.53-24,.89-11.41,14.57-23.22,28-24.2,6-.44,12.14,1.51,18.21,1.41,21.33-.35,42.77.07,64-1.94,60-5.69,99.85-39.78,120.85-94.18,18.9-48.94,27.21-100.18,15.68-152.85-2.61-11.94-5.28-23.89-7.25-36-2.37-14.47,4.41-24.27,18.3-27.07,10.73-2.16,22.06-2.14,33.08-1.84,19,.52,22.64-1.41,23.28-18.9C6819.67-1462.41,6819.75-1482.84,6818.81-1503.18ZM6535-951.35c20.28,1.27,40.45,4,60.71,5.69,21.27,1.73,42.63,2.42,63.86,4.48,14.63,1.42,28.54,5.54,32.62,22.47,3.22,13.35-5,28.35-23.85,34.29-24.81,7.79-50.92,11.45-73.35,16.22-28.32-5.28-52.63-8-75.82-14.65-23.81-6.82-32-19.55-29.12-36.36C6493.47-939,6512.09-952.79,6535-951.35Zm93.56-302.37c-4.31,25.53-19.45,39.21-44.57,43.7-27.8,5-49.35-4.17-63-26.78-15-24.92-14.13-52.62-15.12-80.29,1.58-18.24,1.41-36.84,5.09-54.65,7.46-36,32.94-56.33,63.81-53.55,27.82,2.52,47.63,20.85,54,50.11C6637.64-1334.69,6635.4-1294.08,6628.58-1253.72Z" transform="translate(6420.5 2064.36)"></path> <path d="M4321-1330.41c-.95-46-6.55-91.52-27.47-133.55-18.2-36.56-47.75-57-88.51-61.6-44-5-82.35,7.74-116.2,35.73-8.93,7.38-18.45,14.06-30.54,23.23-3.23-10.51-5.72-15.87-6.45-21.46-3.59-27.19-4.35-28.1-31.95-28.32-19.34-.15-38.69-.37-58-.06-22.79.36-26.89,4.34-28.18,26.12-.3,5.07-.06,10.18-.06,15.27q0,322.2,0,644.4c0,7.12,0,14.25.27,21.37.51,14.91,8.25,22.06,23.24,22,26.47-.19,53,.46,79.4-.26,18.18-.49,22.77-5.59,24.36-24.09.7-8.09.23-16.28.22-24.42,0-52.94-.52-105.88.2-158.81.29-21.48,8.84-25.41,26.62-14,12,7.69,23,16.94,35.41,23.86,66.71,37.31,141.42,13.66,173.92-55.35,18.59-39.49,22.68-82.3,23.61-125.12Q4322.65-1247.92,4321-1330.41ZM4194-1159.06a189.41,189.41,0,0,1-14.3,64.86c-12.18,29.26-38.53,38.08-68.55,27.82-35.94-12.29-50.08-32-50.13-70.16q-.08-56.55,0-113.11H4061c0-39.73-.27-79.47.09-119.21.28-30.58,25.31-56.81,59.38-63.23,29.53-5.56,52.57,6.92,63.69,39a198.67,198.67,0,0,1,10.3,59.81C4195.67-1275.21,4196-1217.07,4194-1159.06Z" transform="translate(6420.5 2064.36)"></path> <path d="M4811.44,675.46a112.56,112.56,0,0,0-58.53,31c-11.65,11.51-21.78,10.42-34.42-.18-12.22-10.25-26.22-20-41.1-25.15-48.19-16.77-96.61-11.52-143.46,5.89-30.35,11.28-54.53,32.34-71.17,60-30.4,50.64-47,105.67-48.31,165.12-.66,30.39,4.25,58.34,24.71,82.68,11.5,13.68,9.72,19.19-4.56,30-12.16,9.19-25.66,16.79-37,26.88-28.36,25.28-32.28,54.79-13.15,87.14,3.05,5.17,5.69,10.57,10.26,19.13-8.39,6.57-14.7,11.38-20.86,16.37-13.37,10.83-28.4,20.23-39.63,33-22,24.9-19.7,54.33,6,75.06a116,116,0,0,0,43,21.83c23.48,5.93,47.95,9,72.18,10.66,55.19,3.74,109.9-.49,162.81-17.73,31.53-10.27,58.79-27.86,79.52-54.35,50.14-64.08,26.15-133.09-52.46-151a125.91,125.91,0,0,0-18.07-2.9c-23.32-1.8-46.69-3.06-70-5-20.25-1.69-40.65-3-60.55-6.69-6.41-1.2-16.47-10.15-16-14.61.78-7.45,7.28-17.27,14-20.36,8.5-3.9,19.71-3.21,29.62-2.52,94.67,6.6,166.65-39,200.55-126.8,14.41-37.3,24.78-75.15,25.47-115.57.48-27.59,10.17-35.94,37.45-36.46a87.19,87.19,0,0,1,12.17.89c15,1.85,22.7-5.12,25.33-19.66,2.72-15,6.66-29.78,9.51-44.76C4838.54,677.37,4832.35,671.37,4811.44,675.46Zm-329.92,499.26c10.07,1.06,20.2,1.59,30.3,2.36l.15-1.34c25.15,2.87,50.5,4.64,75.35,9.19,8.7,1.6,20.17,8.32,23.28,15.69,5.13,12.21-6,20.7-16.35,25.29-12.82,5.68-26.4,12.34-39.95,13.1-28.17,1.58-56.55-.29-84.82-1.17-4.92-.16-10-1.92-14.61-3.87-21.92-9.26-25.71-25-10.62-43C4454,1179.37,4465.92,1173.07,4481.52,1174.72Zm139-264.82c-8,22.82-27.14,34.87-51.06,38.61-26.75,4.18-48-9.85-49.49-36.7-2.48-44.73,9-86.68,32.79-124.94a44.46,44.46,0,0,1,6-6.92c17.5-18.17,41.83-24.82,61-16.73,16.3,6.88,24.28,24.81,27.47,53.47C4638.44,847.82,4631.13,879.44,4620.51,909.9Z" transform="translate(6420.5 2064.36)"></path> <path d="M-63.46,1786.55c-1.89-111.94-3.33-223.88-5.41-335.81-1.08-58-3.1-116-4.83-173.93-.88-29.63-3.85-32.51-34.33-32.75-26.47-.22-53.1,1.82-79.38-.41-28.67-2.43-44.26,8.43-56.44,34.66-87,187.35-175.47,374-263.34,561-3.72,7.92-6.18,16.42-12.08,32.33,33.35.36,59.48-.29,85.48,1.23,21.92,1.28,33.51-8.88,41.71-28,12.05-28,26-55.22,38.91-82.9,7.21-15.49,18.36-22.87,36-22.49,35.62.76,71.27-.19,106.9.35,27.23.41,30.8,4.57,31.15,32.85.27,22.39-.62,44.83.38,67.19,1.18,26.64,7.21,32.23,33,32.84q27.48.66,55,0c25.42-.69,29.61-5,29.48-31.25C-61.29,1823.15-63.15,1804.86-63.46,1786.55ZM-181.11,1602c-.21,23.53-4.91,28-29,28.94-17.27.66-34.6.63-51.88.16-26.38-.72-31.15-8.39-20.33-31.69,10.7-23.06,22-45.85,32.25-69.1,13.91-31.63,26.72-63.73,40.73-95.31,4.66-10.51,11.54-20,17.4-30l7,1.34c1.52,7.22,4.33,14.44,4.35,21.67Q-180.36,1515.05-181.11,1602Z" transform="translate(6420.5 2064.36)"></path> <path d="M4818.89-1248.61c-1.73-41.65-1-83.58-5.74-124.89-8.92-77.94-56.08-131.59-130.18-146.78-30.46-6.24-62.85-6.52-94.11-4.85-94.13,5.05-150.23,52.87-163.5,146.16-12.34,86.71-9.74,174.47-.71,261.75a141.73,141.73,0,0,0,4,21c16.19,62.16,53.18,104.38,116.94,120,44.13,10.81,88.56,11.2,133.19,2.23,63.51-12.75,107-49.1,125.55-111.11,8-26.92,10.46-55.85,12.66-84.08C4819-1195.49,4818.4-1248.59,4818.89-1248.61Zm-128.23,101.37c-.29,32.92-17.17,55.45-45.91,64.82-31.21,10.16-69.73,1.74-86.2-22-7.57-10.93-9.14-26-13.37-39.23a10.27,10.27,0,0,1-.06-3q0-50.3,0-100.6h-.1c0-33.53,1-67.11-.23-100.59-2-52.29,40.69-71.91,73.85-70.94,36.65,1.07,72.05,21.92,72.15,70.4C4690.92-1281.37,4691.25-1214.3,4690.66-1147.24Z" transform="translate(6420.5 2064.36)"></path> <path d="M-299.72,1162.76c-25.29-5.11-49.85-7.48-72.61-15.16-67.18-22.67-91.64-95.69-92-142.34-.11-14.68,7-23,20.59-26,25.81-5.82,51.64-11.63,77.6-16.72,13.69-2.68,21.14,4.57,23,17.92.57,4,.66,8.13,1.26,12.16,4.81,31.94,20.6,56.16,52.86,64.16,31.14,7.72,59.84-2.14,79.88-26.53C-173.63,987-174.63,951-211.62,917c-20.75-19.11-45.85-33.49-69-50-21.5-15.35-44.22-29.25-64.23-46.34-44.38-37.9-54.3-87.12-39.41-141.53,27.48-100.43,109.41-162.86,214.16-162.82a316.14,316.14,0,0,1,75.23,9.09c55.9,13.86,89.27,72.25,92.72,124.11.87,13.13-4.42,21.45-17.33,24.8-23.66,6.13-47.19,12.86-71,18.37-18.26,4.23-22.54,1.07-28.77-17.56-1-2.89-1.27-6-2.23-8.89-16.44-49.73-64.72-65.52-107.19-35.1-44.84,32.11-47.21,77.5-4.14,111.33,22.34,17.54,47.19,31.91,71.1,47.42,29.2,18.94,56.76,39.5,77.67,68.07,16.89,23.07,25,48.44,25.55,76.89,1.79,95.09-61.08,182.47-155,211.34C-241.36,1154.68-271,1157.39-299.72,1162.76Z" transform="translate(6420.5 2064.36)"></path> <path d="M2961.91,676.49c-11-2-22.1-4.07-33.23-4.71-100.8-5.79-183.26,40.76-213.39,133-23.24,71.19-38.48,145.52-51,219.51-10.17,60,24.32,106.57,82.08,126.75,31.76,11.09,64.57,10.14,96.69,6.52,79-8.91,131.72-54.32,163.61-125.46,7.49-16.73,2.12-25.19-16.34-26.26-18.25-1-36.65.53-54.92-.43-19.29-1-31.54,5.33-41.51,23.38-16,29-42.6,43.09-76.51,39.51-26.26-2.76-43.25-21.37-41.18-47.43,1.51-19.1,6.69-37.94,10.73-56.79,3.5-16.39,13.74-23.17,30.83-22.69,30.5.85,61,.24,91.57.24v.21c30.53,0,61.06.45,91.58-.15,22.67-.44,26.38-3.56,31.84-24.84,4.3-16.74,8.28-33.63,11.08-50.67,4.42-27,11-54.17,10.85-81.24C3054.41,728.79,3016.67,686.67,2961.91,676.49ZM2936,845.3c-2.79,4.73-12,7.27-18.53,7.86-13.13,1.2-26.44.36-39.68.36v-.36c-15.26,0-30.57.73-45.77-.23-12.34-.78-17.18-8.58-15.88-21.09,4.38-42.19,42.5-74.69,84.38-71.81,18.77,1.29,34.26,8.47,41,26.56C2949,806.53,2946.79,827.06,2936,845.3Z" transform="translate(6420.5 2064.36)"></path> <path d="M3113.84,1399.36c-46.79-14.33-92.7-9.83-137.91,6.08-71.48,25.15-113.09,76.49-129.08,149.72-6.72,30.81-13.83,61.55-20.07,92.46-6.84,33.89-16.2,67.71-18.55,102-4.82,70.16,38.2,119.91,107.91,126.91,26.11,2.62,53.23,2.79,79.08-1.16,73.67-11.27,123.07-54.8,151.71-122.61,7.91-18.72,2.77-25.73-18.47-26.47-16.27-.56-32.65,1-48.84-.23-21.63-1.63-36.09,4.94-46.57,25.55-14.34,28.21-40.32,39.2-71.45,36.84-29.57-2.24-47.9-24.69-44.22-54.33,1.75-14.09,5.41-28,8.44-41.88,5.47-25.18,11-30.13,37.28-30.6,29.51-.53,59.05-.12,88.57-.12v.13c31.57,0,63.13.07,94.69,0,13,0,25.43-2.6,28.35-17.58,8.39-42.88,19.54-85.63,23-129C3202.24,1456.92,3169.91,1416.53,3113.84,1399.36Zm-37.1,164.77c-4.15,5.5-13.45,8.9-20.82,9.78-13,1.55-26.33.43-39.52.43v-.2c-13.2,0-26.46.9-39.56-.22-16.14-1.38-21.52-8.85-19.69-24.15,4.89-41,45.57-74.26,85.86-70.29,19.82,2,35.39,11,42.38,29.86C3092.53,1528.58,3089,1547.94,3076.74,1564.13Z" transform="translate(6420.5 2064.36)"></path> <path d="M1671.2,676.8c-14-2.51-28.23-5.13-42.39-5.35-69.61-1.13-134.08,11-179.43,71.54a259.26,259.26,0,0,0-46.31,102.08c-10.94,50.73-21.64,101.54-31.18,152.55a235.15,235.15,0,0,0-3.86,54.58c2.62,51.63,29.31,85.93,78.94,100,20.25,5.72,42,6.23,63,9.12,98,1.67,174.24-51.77,201.76-146.5,15.59-53.66,27.4-108.49,38.85-163.23a334.1,334.1,0,0,0,7.18-75.6C1756.57,723.57,1722.53,686,1671.2,676.8Zm-25.06,146.32c-13.25,60.67-26.84,121.3-41.71,181.59-9.6,38.91-36.39,58.09-75.52,57.54-31.42.55-59.44-21.32-49.93-59,14.93-59.2,26-119.37,40.86-178.61,10.73-42.82,50.53-65.63,91.35-55.68C1639.52,775.84,1652.39,794.48,1646.14,823.12Z" transform="translate(6420.5 2064.36)"></path> <path d="M1820.37,1398.69c-62-16.7-121.61-7.28-178.39,19.88-39.53,18.92-63.47,53.45-81,92.35-7.81,17.27-2.82,25.06,15.84,25.87,17.29.75,34.71-.92,52,.29,19.38,1.35,33-5.25,43.39-21.9,12.51-20.09,31.65-31.53,54.93-35.18,18.56-2.91,34.65,2.08,44.87,19,16.34,27,0,70-30.22,79.61-14.56,4.61-29.48,8.08-44.13,12.43-53.27,15.8-102.86,39.11-146.23,74.24-42.64,34.54-65.27,79-67.92,134.55-2.43,51,34.33,77.13,74.21,78.79,41.88,1.75,80.93-6.68,117.25-27.7,8.49-4.92,17.23-9.44,28.05-15.34,17.17,44.4,11,35.64,49.29,37.14,11.2.44,22.43.34,33.63.1,25.74-.58,28.48-2.91,34.17-29q34.5-158.19,68.83-316.43c2.14-9.91,4-20.07,4.3-30.17C1895,1444.62,1871,1412.32,1820.37,1398.69Zm-71.74,273.4c-4.35,20.88-8,42.1-15,62.16-4,11.65-12,23.65-21.5,31.37-23,18.69-55.38,31-71.83,30.84-32.69-.29-51.82-27.55-36.69-56.29,8.7-16.53,21.87-32.89,37.13-43.3,25.81-17.59,54.21-31.87,82.78-44.74C1744.65,1642.63,1753.12,1650.51,1748.63,1672.09Z" transform="translate(6420.5 2064.36)"></path> <path d="M2131.88,1438c7.62-3.88,16-8.59,24.77-12.54,23.1-10.42,45.61-23.25,69.79-29.85,17.88-4.87,38.59-4.54,57-1.08,33.49,6.28,51.28,28.42,50.35,62.79-.71,26.23-5.06,52.65-10.51,78.41-21,99.56-43.34,198.86-64.85,298.32-7.72,35.7-10.62,38.64-45.87,38.8-15.28.07-30.58.49-45.83-.17-22.66-1-27.57-7-22.69-28.4,10.85-47.64,22.55-95.09,33.34-142.74,13.26-58.57,26-117.26,38.79-175.94a78.56,78.56,0,0,0,2.07-21.18c-1.5-24.49-19.23-38.39-41.92-29.53-35.42,13.83-66.1,30.75-74.81,75.71-18.75,96.89-42.54,192.8-64.49,289.06-7.29,31.95-8.84,33-40.33,33.2-16.29.12-32.61.53-48.87-.24-20.89-1-25.1-6-20.85-26.94,13-63.86,26.14-127.68,40.12-191.32,16.17-73.56,33.58-146.84,49.87-220.38,7.2-32.52,9.52-35.26,41.9-35.52,13.24-.11,26.49-.26,39.72.06,24,.57,24.24,1,26.39,25.82a41.28,41.28,0,0,0,2.2,8.63C2127.47,1433.79,2128.5,1434.39,2131.88,1438Z" transform="translate(6420.5 2064.36)"></path> <path d="M991,1831.78c-5.83,2.3-13,4.42-19.52,7.84-17.08,9-33.56,19.18-50.84,27.77-26.64,13.25-55.11,14-83.6,8.33-28-5.62-44.79-24.12-49-51.86-2.26-14.82-2.41-30.88.75-45.47,20-92.5,41.41-184.7,61.86-277.11,5.06-22.82,7.88-46.14,12.51-69.07,5.85-29,11.72-33.5,40.86-33.75,16.3-.14,32.6-.35,48.88,0,24.32.57,28.91,6.06,23.68,29.73-11.21,50.67-23,101.21-34.47,151.84Q923.95,1660.5,906.15,1741c-1.32,6-2.69,12-3,18.06-1.3,26.93,18.7,43.65,43.25,33.72,19.6-7.94,39.15-18.31,55.23-31.76,9.79-8.18,15.7-23.66,18.69-36.91,21.74-96.31,42.3-192.88,63.23-289.36,1.08-5,2.19-10,3.27-14.92,3-13.9,11.65-21,25.82-21.15,21.38-.16,42.79-.79,64.14.1,20.7.86,25.06,6.67,20.6,27.29-10.52,48.74-21.7,97.35-32.69,146q-28.61,126.56-57.29,253.08c-1.57,6.95-2.65,14-4.55,20.89-6.46,23.19-10.09,26.14-33.77,26.65-16.28.34-32.59.3-48.87,0-24.14-.38-24.4-.86-24-26.53a46.59,46.59,0,0,0-1-8.93C995.05,1836.37,994,1835.65,991,1831.78Z" transform="translate(6420.5 2064.36)"></path> <path d="M4147.48,722.21c16.45-9.76,27.52-16,38.25-22.74,36.75-23.13,76.13-33.81,119.39-24.65,30.61,6.48,46.79,23.38,48.1,54.55a268.85,268.85,0,0,1-5.15,66.65c-18.92,88.61-39.61,176.84-59.28,265.29-4.42,19.86-7.24,40.07-11.1,60-4.74,24.52-10.21,29.62-34,30.31-19.34.56-38.71.65-58,0-22.4-.74-25.46-6.42-20.35-28.92q36.16-159.25,71.59-318.69c1.32-5.92,2.58-12.08,2.4-18.09-.73-24.71-21.54-40.24-43.82-30.28a267.44,267.44,0,0,0-57.08,34.57c-8.43,6.72-13.31,20.27-15.85,31.61-14.05,62.58-26.64,125.48-40.23,188.15-8.41,38.8-17.43,77.47-26.73,116.06-5.45,22.64-8.48,25-30.92,25.57-19.34.51-38.71.59-58-.05-22.84-.76-26.95-6.34-22-28.37q20.43-90.85,41.1-181.66,25.26-111.66,50.49-223.31c1.58-6.94,3-13.94,5-20.77,3.2-11.11,10.87-17,22.42-17.14q32.07-.4,64.14-.29c10.61.06,17.36,4.81,17.74,16.39C4145.72,702.33,4146.39,708.2,4147.48,722.21Z" transform="translate(6420.5 2064.36)"></path> <path d="M2562.85,523.92h158.78c6.1,0,12.26-.43,18.31.21,15.95,1.67,20.26,6.53,17.23,21.64-4.2,20.92-10,41.53-14.41,62.41-3.53,16.61-13.14,24.17-30,23.93-27.47-.4-55-.54-82.43-.23-28.22.31-31.25,2.09-37.49,29.31-23.64,103.1-46.72,206.31-69.9,309.51-10.92,48.64-21.35,97.39-32.44,146-7.48,32.79-11,35.09-45.7,35-15.26,0-30.53.15-45.8,0-33.4-.24-35.73-3.42-28.6-35.09q31.5-139.92,62.64-279.91,19-84.88,38.08-169.75c6.59-29.29,2.85-34.57-27.14-35.06-26.45-.43-52.94.67-79.38,0-21-.57-24.91-6.1-20.77-26.63,3-15,6.31-29.88,10.28-44.6C2364,524,2364.17,524,2401,524h161.82Z" transform="translate(6420.5 2064.36)"></path> <path d="M2708,1562.12c-12.21,0-24.44.29-36.64-.09-10.49-.33-18.9-5.11-16.7-16.71,4.29-22.6-.42-41.78-21.88-51.54-24.33-11.08-49.57-9.45-73.26,4.18-19.91,11.46-30.15,29.82-35.14,51.38q-19.63,84.77-38.71,169.66c-8.77,39,8.24,60.66,48.39,62.18,38.83,1.47,65.86-17.22,78.46-54.26,9.28-27.28,9.95-27.93,38.73-28.25,18.31-.2,36.7-.68,54.95.54,15.69,1.06,20.12,6.83,16.08,22.11-19.89,75.33-67.1,139.13-155.27,153.43-27.8,4.5-57,4.63-85.14,2-74.17-6.93-113.34-54.09-107-128.39,2.51-29.22,9.46-58.15,15.7-86.92,8.63-39.76,17.14-79.63,28.08-118.78,33.28-119.14,119.75-160.92,238.49-149.36,16.93,1.65,33.67,7.76,49.93,13.42,28.45,9.91,45.8,32.29,51.3,60.06,4.85,24.52,2.84,50.53,2.58,75.87-.14,13.42-9.24,19.56-22.45,19.53-10.18,0-20.36,0-30.54,0Z" transform="translate(6420.5 2064.36)"></path> <path d="M3218.34,1159c-88.27,4.25-121-44-141.64-107.85-6.35-19.61-3-25.68,16.44-31.74,17.48-5.45,35.32-9.75,53-14.52,22.45-6,24.81-4.75,32.86,18,12.8,36.17,36.07,50.93,72.43,45.17,22.79-3.61,40.27-15.34,47.24-38,6.71-21.84-5.22-37.77-21.45-49.82-13.81-10.25-29.33-18.22-44.16-27.1-15.71-9.4-32-17.89-47.17-28.14-51.43-34.82-60.54-73.74-46.82-127.33,16.41-64.08,58.48-105.86,124.82-120.23,32.22-7,64.55-8.9,96.9-.82,48.47,12.12,75.8,44.65,88.68,91.46,3.67,13.34-.91,22-13,26.87-20.75,8.35-41.61,16.47-62.66,24-9.17,3.29-15.41-1.31-19.38-10-3.79-8.3-7.31-17-12.67-24.26-25-33.84-69-32.45-92.15,2.46-11.21,16.9-12.42,30.11,2.1,44.17,14.34,13.89,32.14,24.36,49,35.47,23.7,15.63,49.87,28.14,71.46,46.19,33.17,27.72,43.69,64.47,33.13,107.46C3383.54,1109.09,3317,1158.92,3218.34,1159Z" transform="translate(6420.5 2064.36)"></path> <path d="M144.27,1879.29C56.46,1881.83,23.55,1838.6.37,1769.17c-5.81-17.41-2.45-23.47,15.84-29.42,17.4-5.66,35.25-10,53-14.4,25.13-6.19,25.68-5.69,34.41,19.4,15.93,45.78,66.63,59.48,103.87,28.06,20.9-17.63,23.56-45.06,4-64.1-11.47-11.15-25.89-19.5-39.68-28-19.07-11.7-39.38-21.43-58.16-33.56-50.64-32.72-67.35-79.91-48.59-137.5,17.54-53.88,52.56-90.64,107.68-107.5,39.88-12.19,79.51-15.87,120.09-3.15,42.88,13.44,67.5,43.65,80.26,85,5.33,17.25,2,24.58-14.29,31.59-17.75,7.63-36.21,13.56-54.23,20.56-14.27,5.54-22.36.67-29-12.91-5.63-11.57-13.06-23.34-22.61-31.68-16.76-14.61-36.61-16.47-56.82-5.41-36.55,20-40.18,52-7.52,77.67,13.45,10.56,29.83,17.28,44.26,26.7,23.73,15.47,47.9,30.51,70.14,48,25.37,19.91,32.25,49,30,79.61-6.07,82-67.29,146.29-149.24,157.81C170.73,1877.73,157.45,1878.19,144.27,1879.29Z" transform="translate(6420.5 2064.36)"></path> <path d="M525.31,1878.75C437.18,1882.5,404,1831.08,385,1768.92c-5.39-17.67-2.1-23.58,16.15-29.45s37.23-10.67,56.09-15c21.21-4.83,23.48-3.1,30.72,17.86,16.6,48,66.81,62.4,104.22,29.83,21.33-18.57,23.33-43.85,2.73-63.87-11.47-11.15-25.9-19.48-39.64-28.06-22.41-14-46.27-25.85-67.87-41-40.53-28.38-53.18-69-41.88-115.76,14-58.12,47.44-100.47,106.36-119.8,46-15.08,91.46-19,137.38.18,37,15.41,57.35,44.46,68.17,81.27,4.95,16.84,1.1,24.26-15.58,31.14-17.88,7.37-36.44,13-54.55,19.86-13.1,4.93-20.87.34-27.05-11.69-5.49-10.68-11.36-22.12-20-30-29.7-27.25-77.82-14.1-88.63,24.66-2.5,9,1,24.23,7.49,30.12a284,284,0,0,0,56.75,40c28.19,14.9,54.82,30.85,76.18,55.1,22.58,25.65,30.22,54.52,23.31,87.84C696,1825.88,628,1878.43,525.31,1878.75Z" transform="translate(6420.5 2064.36)"></path> <path d="M1837.2,1151.76c-10.18,0-20.39.53-30.53-.12-20.55-1.32-24.88-6.93-20.2-27.52,15.55-68.48,31.51-136.87,47.29-205.29,7.31-31.74,14.81-63.43,21.75-95.25,5.76-26.41,4.72-28.56-22.37-33.74-14.68-2.8-18.8-10.28-15.83-23.54,2.44-10.93,5.55-21.7,7.89-32.65,6.38-29.89,6.19-30.51,35.56-34.85,15.26-2.26,23.58-9.59,27-24.45,4.09-17.85,8.68-35.63,14.11-53.1,25.18-81.08,93.84-121.82,175.46-104.52,15.78,3.34,21.39,9.81,18.68,25.52-2.94,17-7.85,33.67-12,50.46-3.41,13.89-12.44,18.86-26.58,20.13-40.11,3.62-58.93,24.75-60.85,65.49-.51,10.78,3.66,17.78,14.49,19.72,5,.89,10.13.57,15.19,1,24.49,1.85,27.43,5.58,23.75,30.58-.89,6-2.36,12-3.59,18-8.25,40.09-8.26,40.09-48.36,42.37-22.15,1.26-27.3,4.79-32.9,28.31-8.48,35.64-15.76,71.57-23.49,107.39-14.38,66.64-28.49,133.35-43.2,199.92-4.87,22-9.18,25.15-30.74,26.25-10.15.51-20.35.09-30.54.09Z" transform="translate(6420.5 2064.36)"></path> <path d="M3495.48,781.12c4.76-21.49,8.51-44.36,15.46-66.22,2.13-6.72,12.71-14.64,19.91-15.14,23.53-1.65,30.68-15.38,33.81-35.71,3.56-23.07,9.17-45.82,13.37-68.8,3.07-16.76,12.51-24.48,29.56-24.13,20.34.42,40.72-.54,61,.31,19.54.82,23.51,5.76,19.86,24.82-4.58,24-10.5,47.68-15.74,71.52-5.56,25.27-1.38,30.46,25,31.27,4.06.12,8.15-.4,12.2-.16,20.72,1.26,24.53,6.07,21.22,26.83-.8,5-2.23,9.92-3.2,14.91-9.09,46.75-9.07,46.76-55.07,49.25-22.7,1.23-28,5.31-33.21,27.85q-21.81,95.14-43,190.44c-1.77,7.9-3.38,16.1-3.19,24.12.39,16.41,9.13,24.34,29.76,29,32.34,7.3,32.29,7.29,24.61,39.54-2.82,11.87-5.38,23.81-8,35.74-3,13.65-11.07,21.7-25.36,21.73-25.42,0-51.08,1.77-76.18-1.16-36.38-4.24-71.9-22.07-63.9-78.5,5-35.16,13.2-69.91,20.85-104.65,10.71-48.68,22.07-97.21,33.49-145.72,7-29.73,6.77-30.47-22.91-40.14C3503.19,787.24,3501,784.88,3495.48,781.12Z" transform="translate(6420.5 2064.36)"></path> <path d="M935.8,1151.76c-10.18,0-20.37.38-30.53-.08-23.09-1-26.91-6.09-21.88-28.26,10.35-45.65,20.9-91.26,31.15-136.94q47.78-213,95.36-425.95c8.05-36.08,8.49-36.6,46.71-36.52,14.25,0,28.51-.47,42.75-.09,23.55.62,27.55,5.59,22.64,27.35-23.28,103.22-46.9,206.36-69.86,309.65-18.32,82.44-36,165-53.67,247.61-9.24,43.2-9,43.26-53.5,43.1-3.06,0-6.11,0-9.17,0Z" transform="translate(6420.5 2064.36)"></path> <path d="M1406.42,1404v30.24c12.58,6.39,18.17-2.74,24.55-8.47,20.45-18.35,45.22-27.46,71.35-32.83,16.73-3.44,24,3.37,21.15,19.78-4.39,25.06-10.35,49.86-16.21,74.63-3.44,14.48-12.49,18.54-27.55,15.87-66.25-11.77-88.52,3.93-102.87,69.55q-28.74,131.33-58.28,262.48c-7.73,34.59-11.47,37.38-47.17,37.45-14.26,0-28.55.49-42.79-.06-23.54-.92-27.35-5.63-22.51-27.9q30.9-141.82,62.13-283.58,13.77-62.69,27.75-125.31c7.73-34.58,11.34-37.41,47.17-37.32,17.31,0,34.63.24,51.93.75C1397.86,1399.36,1400.59,1401.49,1406.42,1404Z" transform="translate(6420.5 2064.36)"></path> <path d="M3768.79,1151.69c-10.18,0-20.4.58-30.54-.11-18.91-1.3-22.46-6.23-18.67-25.62,2.54-13,6.09-25.76,8.89-38.69q39.84-183.46,79.64-366.94c1.73-7.92,4.69-15.58,7.1-23.35,3.92-12.63,12.87-17.19,25.61-16.94,19.34.37,38.71-.49,58,.23,20.77.78,26,6.23,22.39,26.4-6.61,37.06-14.25,74-22.48,110.69-22,98.31-44.84,196.45-66.78,294.78-8.44,37.81-9.78,39.65-47.91,39.55C3779,1151.67,3773.88,1151.68,3768.79,1151.69Z" transform="translate(6420.5 2064.36)"></path> <path d="M3913.07,500.38c11.2,0,22.42-.42,33.6.11,12.9.61,18.55,8.73,16.2,20.63-4.13,21-8,42.23-15.4,62.13-2.69,7.28-14.62,14.8-23,15.61-22.21,2.16-44.8,1.59-67.15.43-16.89-.88-20.46-7.15-16.83-24.5,2.92-13.95,6.29-27.8,9.53-41.67,6.67-28.57,12.11-32.86,41.63-32.92h21.4Z" transform="translate(6420.5 2064.36)"></path> <path d="M411.54,772.69c-6-41-26.5-74.31-66.63-88-110.68-37.66-230.64,1.36-275.8,126.06-8.6,23.77-13.32,49.05-18.65,73.89-9.83,45.78-20.55,91.48-27.66,137.71-9.34,60.82,24,110.79,82.45,129.42,32.92,10.48,66.74,9.3,100,5,78.31-10,128.43-56.79,157.94-127.77,6.3-15.17.9-22.49-16.67-23.35-17.28-.85-34.68.72-51.93-.42-20.49-1.34-33.77,5.05-44.17,24.42-15.88,29.54-43.17,42.28-76.88,38.6-25.78-2.81-40.72-18.89-39.86-45.06.6-18.19,3.94-36.43,7.66-54.32,4.62-22.28,10-26.44,33.59-26.93,30.55-.62,61.11-.15,91.68-.15v0c28.52,0,57,.14,85.56,0,29.71-.19,31.81-1.32,39.35-31.06,7.25-28.61,14.17-57.4,19-86.49C413.28,807.48,414,789.54,411.54,772.69ZM292.39,845.18c-3.91,5.26-14.08,7.36-21.65,8.09-13.1,1.28-26.42.36-39.65.34s-26.51.82-39.65-.22c-17-1.34-21.71-7.85-19.41-23.67,6.3-43.47,46.63-74.57,89.6-69.27,18.84,2.32,32.82,11.5,38.9,29.64C307,809.47,304.5,828.89,292.39,845.18Z" transform="translate(6420.5 2064.36)"></path> <path d="M-1423.9,280.71c-7.23-162.47-32.66-322.35-71.46-479.83-38.86-157.7-97.41-308.8-166.38-455.71-56.41-120.16-125-233.61-200.79-342.2a2478.91,2478.91,0,0,0-271.8-325.65q-158.72-160.26-342.88-289.23c-137.31-95.68-281.84-178.75-436.44-244.41-176.06-74.76-356.42-134.33-545.16-166.75-151.84-26.08-304.61-43.08-462.59-41.11-172.46-2.39-346.23,19.34-518.62,52.19-105.19,20-207.72,51.07-308.69,86.74-106.7,37.69-212,79.27-311.8,132.78C-5134-1753-5205-1708.75-5276.92-1666.41c-106.71,62.78-202.89,140-295.87,220.9-89.14,77.55-174,160-249,251.65-49.05,59.87-99.35,119.14-143.22,182.73-78.64,114-151.92,231.23-210.39,357.65-70.79,153-130.31,309.34-170.53,473.42-41.17,168-63,338.39-72.47,510.48-6.1,111,2.17,222,13.3,332.5,10.72,106.51,30.45,211.44,53.23,316.11,43,197.67,117.81,383.32,207.27,563.48,51.72,104.15,114.17,202.4,181.56,297,110.9,155.69,237.62,297.73,381.74,423.55,96.74,84.47,196.9,164.8,307.76,230.51,71.81,42.57,143,86.38,216.7,125.53,105.41,56,216.85,98.33,329.42,138,159.36,56.11,323.19,92,490.45,112.56,133.6,16.43,267.7,23.09,402.51,18.47a2684,2684,0,0,0,448.55-53.72c181.31-37.24,355.22-98.81,523.71-174.73,125.6-56.59,244.54-126.12,358.21-203.81,157.8-107.84,302.46-231.41,431.6-372.7,100.58-110,192.08-227,271-353.65,60.37-96.86,118.59-195,161.73-301.07,30.67-75.42,63.2-150.21,90.37-226.88,34-96,63.61-193.52,78.87-294.78,11.38-75.52,26.43-150.56,35.53-226.33C-1419,547.69-1417.95,414.28-1423.9,280.71Zm-468.37,619.62c-27.76,111.94-66.87,219.87-111.43,326.38-51.47,123-118.32,236.84-192.25,346.81-47.74,71-100.18,138.77-159.46,200.87-33.72,35.34-66.5,71.61-101,106.14a1900.44,1900.44,0,0,1-290.43,237.78c-102.66,68.43-209.66,130-323.28,178.6-157.81,67.57-320.59,118.66-490.32,147.76q-320.49,54.93-642.11,11.55c-179.68-24.36-352.53-72.67-520.42-141.47-184.43-75.57-353.36-176.49-508.48-300.68q-212.16-169.87-373.8-389c-69.45-94.5-132.34-193.58-183.84-299-84.86-173.77-150.22-354.83-182.34-545.94-34.28-203.91-40.8-409.17-16.92-615.16,22-189.64,70.89-371.88,145.47-547.36A2063,2063,0,0,1-5632.63-761a2096.35,2096.35,0,0,1,288.36-331.24c126.57-117.87,266.46-217.68,418-301.21,166.14-91.56,342.15-157.72,526.19-201.77,187.3-44.84,377.59-61,570.25-53.33A2052.48,2052.48,0,0,1-3295.44-1556c173.72,54.49,338.83,128.32,492.64,226.86,75.61,48.45,149.65,98.93,217.79,157.32,76.53,65.58,150.5,133.61,218.48,208.74q191.15,211.27,318.59,464.89c60.71,121.37,109.23,247.83,144.24,379.23,24.16,90.69,44.94,182.21,54.08,275.62,8.31,85.06,11.89,170.58,17.55,255.9C-1831.93,578-1852.59,740.33-1892.27,900.33Z" transform="translate(6420.5 2064.36)"></path> <path d="M-2108,1207.46c-10.83.59-18.58.45-26.16,1.51-62.46,8.73-124.67,20-187.38,26-66.55,6.38-132.88-.72-195-26.64-91.79-38.31-164.24-101.15-219.15-184-26.83-40.47-62.89-62.18-112.51-60.71-38.36,1.14-68.59,16.58-91.93,46.6-6.44,8.28-10.44,20.42-26.57,17.91-1.35-6-3.71-11.7-3.72-17.37q-.24-145.21.28-290.42c0-6.32,3.64-12.62,7.1-23.82,12.4,9.86,21.88,16.66,30.53,24.38,87.08,77.66,178.89,143.93,301.87,152.85,77.09,5.59,150.37-.82,219.47-37.14,92-48.38,151.9-127.46,203.43-214.3,2.15-3.64.87-9.31,1.29-15.62-8.62-1.25-15.38-2.84-22.2-3.11-48.84-1.91-97.87-1.56-146.51-5.78-66-5.72-131.75-14.59-194.41-37.74-88.75-32.77-169.27-80.27-242.06-140.41-57.78-47.73-107.71-102.49-140.88-170.78-4.67-9.6-12.93-18.93-1.94-32.86,7.88,2.73,16.43,5,24.42,8.58a945.52,945.52,0,0,0,227.62,68.59c53.91,9,107.28,10.15,160.28-6.31,53.62-16.66,97.28-50.45,142.65-81.36,2.75-1.88,3.41-6.84,5.65-11.67-5.13-4.23-9.2-8.78-14.24-11.55-32.1-17.7-65.19-33.74-96.52-52.7-88-53.28-174.73-108.66-263-161.44-99.34-59.4-187.59-133.31-275.07-208-70.44-60.16-137.75-124-206.44-186.21-17.38-15.74-21.84-15.15-35.94,3.31-56.23,73.66-111.1,148.43-169.3,220.51-93.1,115.31-196.09,221-318,306.47-71.62,50.19-148.39,89.13-237.77,96.59-17.67,1.47-22.68,7.64-21.46,26.45,3,45.54,25.66,78.62,66.51,98.65,47.72,23.41,98.5,24.6,149.59,16.91,96.86-14.58,192.22-36,285.2-67.27,62.74-21.09,125.36-42.52,188.12-63.55,25.89-8.67,33.39-3.33,34.28,24.09,1,29.52,1.94,59.06,2.07,88.59.56,119.2-1.2,238.28-11.34,357.22-9.38,110-25.39,218.53-59.59,323.74-25.61,78.77-60.31,153.57-105,223.36-53.69,83.82-121,156.22-194.12,223.06-49.58,45.33-99.39,91.18-153.73,130.36-114.38,82.46-243.58,136.3-378,175.61-130,38-261.57,70.68-396.28,88.45-6.42.84-12.49,4.23-24.64,8.52,11.64,7.92,18.19,13.77,25.8,17.32,62.71,29.29,125.25,59,188.58,86.93,83.81,37,172.75,54.64,263.29,63.79a1073.72,1073.72,0,0,0,289.2-9.76,1001.72,1001.72,0,0,0,272.52-87.72c155.32-75.81,284.32-184.9,391.89-320.24,57.48-72.32,107.93-148.5,139-235.75,20.45-57.45,36.39-116.51,54.58-174.78,3.34-10.69,1.6-25.29,21.69-28.24,2.34,9.94,4.81,19.34,6.71,28.85,1.78,9,2,18.32,4.57,27,24.69,83.65,76.27,145.92,153.91,184.64,103,51.37,212.91,76.07,328,72.38,98.59-3.15,185.79-39.94,255.63-108.62,44-43.26,79.41-95.23,118.3-143.59C-2111.58,1223-2111.06,1216.51-2108,1207.46Z" transform="translate(6420.5 2064.36)"></path> <path d="M-5843.84,446c9,9.08,15.44,16.29,22.61,22.63,119.77,105.91,240.85,210.38,359.1,318,92,83.67,177.9,173.67,258.36,268.59,68,80.18,133.56,162.15,170.3,262.69,1.42,3.88,3.12,7.66,4.68,11.49l8.14-2.22c4.76-8.25,9.81-16.35,14.22-24.79,48.54-92.95,94.48-187.38,146.14-278.57,55.2-97.42,113.29-193.43,174.85-286.94,43.58-66.2,93.79-128.22,143.33-190.27,52.47-65.7,112.95-123,188.94-161.77,6.38-3.26,11.41-9.18,18.09-14.71-23.2-13.53-52.12-20.1-84.78-21.87-69.74-3.77-138.51,4.19-206.48,18.41-88.78,18.58-177.06,39.2-257.5,83.87-14.77,8.2-25.85,4.88-30.71-12.5-6.77-24.21-11.69-49.63-12.45-74.68-1.6-52.89,1.38-105.92,0-158.83-2.51-96.58,9.68-191.39,34.66-284.22,38.65-143.59,108.31-272.57,197.87-390.12a1308.18,1308.18,0,0,1,322.19-301.23c115.55-76.2,237.27-137.89,370.73-177,132-38.68,265.67-62,403.5-58.82,5.49.12,11-1.44,16.55-2.22l1.8-6.44c-10.27-5.18-20.27-11-30.85-15.43-100.6-42.11-202.65-80.09-307.27-111.23-81.27-24.18-163.45-43.21-247.85-52.2-61.33-6.54-122,.91-182.84,7.38-107.45,11.42-210.22,41.89-308.21,85.18-151.1,66.74-281.94,163.59-390,288.75-95.2,110.26-170.55,232.54-220.55,370.81-49.84,137.81-75.63,279.24-76.24,425-.55,130.12,18,258.1,60.57,381.64,11.08,32.13,13.13,63.38,4.55,95.93-6.31,23.92-13,29.13-36.47,24.41-17-3.41-33.72-7.83-50.5-12.07-55.25-14-109.88-31.28-165.82-41.37-98.47-17.75-197-4.09-295.29,6.94C-5831,438.64-5835.17,442-5843.84,446Z" transform="translate(6420.5 2064.36)"></path> <path d="M-4487.61,1012.72c-2.21,3.6-3.8,5.19-4.16,7-.57,2.92-1.15,6.26-.29,9,13.8,43.86,28.8,87.29,62.46,120.74,46.31,46,95.58,88.53,150.68,123.88,59.18,38,123.77,60.48,193.35,71,79.13,11.92,158.21,10.46,237.5,4.33,64.53-5,126.82-18.09,184-50.33,27.18-15.33,149.86-114.42,168.76-139.41,9.06-12,19-25.31,22-39.43,10.38-47.67,19.47-95.75,25.91-144.1,4.42-33.27-6-45.68-40.17-47.05-49.68-2-99.74-2.73-149.23,1.11-63.62,4.94-122.36,29.72-180.35,54.86-142.36,61.72-290.95,91.26-446,84.07-71.4-3.31-141.52-15.61-205.77-50.3C-4474.58,1015-4481.69,1014.34-4487.61,1012.72Z" transform="translate(6420.5 2064.36)"></path> <path d="M-3346.22,542.14c-.52-22.62-1.08-45.25-1.53-67.88-.63-32.16,1.16-49.72-35.84-49.72-46.71.14-93.55,2.19-140.07,6.36-45.21,4.06-86.38,21-125,45.46-43.77,27.74-87.68,55.94-134.1,78.7-63.15,31-133.13,39-202.13,41.6-82.22,3.09-164.74-1.16-247.12-2.91-24.74-.52-31.68,4.66-22.94,27.56,8.52,22.32,19.56,45.18,35,63.07,48.95,56.81,115.56,85,185.37,106.58,92,28.38,186.67,41.39,282.31,47.85,86.85,5.87,170.22-7,248.53-48,58.85-30.8,159.62-103,158.86-175.89C-3345.16,590.66-3345.67,566.4-3346.22,542.14Z" transform="translate(6420.5 2064.36)"></path> <path d="M3428,1388.14c-62.15,0-111,48.82-111,108s48.83,108,111,108,111-48.83,111-108S3490.15,1388.14,3428,1388.14Zm0,192.38c-45.86,0-84.35-38.49-84.35-84.35s38.49-84.37,84.35-84.37,84.35,38.49,84.35,84.37S3473.88,1580.52,3428,1580.52Z" transform="translate(6420.5 2064.36)"></path> <path d="M3454.65,1508s20.7-7.4,20.7-31.09c0-19.23-17.76-37-39.95-37h-48.83V1552.4h28.13v-38.49h14.79l20.7,38.49h29.62Zm-20.72-19.23H3414.7v-23.69h19.23c7.4,0,11.83,4.43,11.83,11.83S3441.33,1488.78,3433.93,1488.78Z" transform="translate(6420.5 2064.36)"></path> </svg> 