<?xml version="1.0" encoding="UTF-8"?>
<svg id="layer" version="1.1" viewBox="0 0 226.4 224.2" xml:space="preserve" xmlns="http://www.w3.org/2000/svg">
<style type="text/css">
	.st0{fill:#EBD9B0;}
	.st1{fill:#008136;}
	.st2{fill:#231815;}
</style>
<path class="st0" d="m113.2 217.7c-29.4 0-56.1-11.8-75.4-30.9s-31.3-45.5-31.3-74.7 12-55.6 31.3-74.7 46-30.9 75.4-30.9 56.1 11.8 75.4 30.9 31.3 45.5 31.3 74.7-12 55.6-31.3 74.7-46 30.9-75.4 30.9z"/><path class="st1" d="m18.9 112.1c0 25.7 10.5 48.9 27.6 65.8s40.6 27.3 66.8 27.3c26.1 0 49.7-10.4 66.8-27.3s27.6-40.1 27.6-65.8-10.5-49-27.6-65.8c-17.1-16.9-40.6-27.3-66.8-27.3-26.1 0-49.7 10.4-66.8 27.3s-27.6 40.1-27.6 65.8m94.3 112.1c-31.2 0-59.6-12.5-80-32.8-20.5-20.2-33.2-48.3-33.2-79.3 0-30.9 12.7-59 33.2-79.3s48.8-32.8 80-32.8 59.5 12.5 80 32.8c20.5 20.2 33.2 48.3 33.2 79.3 0 30.9-12.7 59-33.2 79.3-20.4 20.2-48.8 32.8-80 32.8z"/><path class="st1" d="m142.6 73.4s-19.3 29.7-34.5 29.2c0 0-1 5.1 5.5 6.4 6.4 1.3 27.2-6.5 27.2-6.5s1 19.7-1.8 31.9c-3.1 13.6-9.7 20.8-20.2 29.5-12.5 10.3-38.1 13.3-38.1 13.3s8.9 5 15 6.5c22.1 5.4 42.2-4.3 54-23.1 4.3-6.8 6.5-20 6.5-20v-16.2s6.3 6.3 11.3 7.7c6.8 1.9 12.2 1.2 17.8-3.5 2.9-2.4 5.8-7.9 5.8-7.9s-12 0.5-18.8-2.7c-7.6-3.6-14.2-9.1-16.1-15.3 0 0 12.7 6.3 20.2 3.4 2.6-1 6.3-3.8 6.3-3.8s-14.3-7.7-22.7-13.9c-7.2-5.3-17.4-15-17.4-15"/><path class="st1" d="m139 112.8s-5.4-0.4-8.7 0.3c-5.3 1.1-7.4 4.6-12.6 6.2-7.5 2.3-20 1-20 1s-0.9 8.3 18.6 10.7c5.6 0.7 11.6 1.1 17.5-2.9 2.3-1.6 5.3-5.1 5.3-5.1z"/><path class="st1" d="m128.5 149.1s4.5-2.8 4.9-5.1 2.2-7.9 0.6-8.3-4.1-0.5-6.7-0.3c-5.7 0.3-9.5 3-14 4.3-18.4 5.5-26.3-1-26.3-1s1 4.6 3 6.6c8.1 7.7 12.8 10.1 27.2 9.1 7.7-0.6 11.3-5.3 11.3-5.3"/><path class="st1" d="m166.9 140c-1.6-2.7-4.4-3.7-7.2-2.6-2.5 1-4 4.3-4 6.2s-1.5 13.8 17.8 16.5c4.9 0.7 8.8 0.2 13.5-2.6 4.2-2.6 8.7-9.7 8.7-9.7s-11.9 3.4-18.6 0.5c-4.7-2-7.1-4.1-10.2-8.3"/><path class="st1" d="m69.4 114c1.7-1.7 18.8-6.9 25.3-3.6-13.2 4-31.7 43.7-31.7 43.7-3.1-13-37.4-40.5-37.4-40.5s10.7-1.9 17.1 0 8.4 2.1 8.4 2.1 1.1-2.9 0.5-4.6c-2-5.7-3.1-11.8-3.1-18.2 0-29.5 23-53.4 51.3-53.4 10.9 0 29.5 8.6 29.5 8.6-32.3-1.5-62.1 24.5-62.1 54 0 4.6 0.4 4.2-0.1 8.3 0.2 0 0.6 5.3 2.3 3.6"/>
</svg>
