<?xml version="1.0" encoding="UTF-8"?>
<svg width="76.27pt" height="46.52pt" version="1.1" viewBox="0 0 76.27 46.52" xmlns="http://www.w3.org/2000/svg">
 <defs>
  <clipPath id="clip1">
   <path d="m43 42h3v4.5195h-3z"/>
  </clipPath>
  <clipPath id="clip2">
   <path d="m72 5h4.2695v4h-4.2695z"/>
  </clipPath>
 </defs>
 <path d="m28.469 41.875h2.168v0.65625h-1.3633v0.80859h1.2695v0.65625h-1.2695v1.4219h-0.80469v-3.543" style="fill:#6b8a3a"/>
 <path d="m31.918 44.129c0 0.44531 0.18359 0.77344 0.52734 0.77344 0.3125 0 0.51172-0.30859 0.51172-0.77344 0-0.38281-0.14844-0.77344-0.51172-0.77344-0.38281 0-0.52734 0.39453-0.52734 0.77344m1.8633-0.023437c0 0.94141-0.66797 1.3711-1.3594 1.3711-0.75 0-1.3281-0.49219-1.3281-1.3242s0.54688-1.3633 1.3711-1.3633c0.78906 0 1.3164 0.54297 1.3164 1.3164" style="fill:#6b8a3a"/>
 <path d="m34.305 43.695c0-0.37891-0.011719-0.62891-0.023438-0.84766h0.69141l0.023438 0.47266h0.023437c0.13281-0.375 0.44922-0.53125 0.69531-0.53125 0.074219 0 0.10938 0 0.16797 0.011718v0.75c-0.058594-0.007812-0.125-0.019531-0.21484-0.019531-0.29688 0-0.49609 0.15625-0.55078 0.40625-0.007813 0.050781-0.015625 0.11328-0.015625 0.17578v1.3047h-0.79688v-1.7227" style="fill:#6b8a3a"/>
 <path d="m38.129 43.656c0 0.69531 0.32812 1.1836 0.86328 1.1836 0.54297 0 0.85156-0.51562 0.85156-1.2031 0-0.63672-0.30469-1.1836-0.85547-1.1836-0.54297 0-0.85938 0.51562-0.85938 1.2031m2.5625-0.046875c0 1.1641-0.70312 1.8672-1.7422 1.8672-1.0508 0-1.668-0.79297-1.668-1.8047 0-1.0625 0.67969-1.8555 1.7266-1.8555 1.0898 0 1.6836 0.8125 1.6836 1.793" style="fill:#6b8a3a"/>
 <path d="m41.219 43.695c0-0.37891-0.007812-0.62891-0.019531-0.84766h0.6875l0.027344 0.47266h0.019531c0.13281-0.375 0.44922-0.53125 0.69531-0.53125 0.074219 0 0.10938 0 0.16797 0.011718v0.75c-0.058594-0.007812-0.125-0.019531-0.21484-0.019531-0.29688 0-0.49609 0.15625-0.54688 0.40625-0.011718 0.050781-0.015625 0.11328-0.015625 0.17578v1.3047h-0.80078v-1.7227" style="fill:#6b8a3a"/>
 <g clip-path="url(#clip1)">
  <path d="m44.883 43.895c0-0.054687-0.003907-0.10547-0.019532-0.14844-0.054687-0.21094-0.20703-0.35156-0.42969-0.35156-0.28906 0-0.52734 0.26172-0.52734 0.73047 0 0.38281 0.19141 0.68359 0.52734 0.68359 0.20703 0 0.36719-0.13672 0.42188-0.32422 0.023437-0.058594 0.027344-0.14453 0.027344-0.21094zm0.82031-1.0469c-0.011719 0.16016-0.023437 0.37891-0.023437 0.76172v1.4375c0 0.49219-0.097657 0.89844-0.38672 1.1562-0.28516 0.24219-0.66797 0.31641-1.0469 0.31641-0.33984 0-0.69531-0.070312-0.92578-0.19922l0.15625-0.60547c0.16406 0.09375 0.44922 0.19531 0.74609 0.19531 0.37891 0 0.66797-0.20703 0.66797-0.67969v-0.16797h-0.007812c-0.15625 0.21484-0.40234 0.33594-0.69531 0.33594-0.63672 0-1.0898-0.51562-1.0898-1.2578 0-0.82422 0.53906-1.3516 1.168-1.3516 0.35156 0 0.57422 0.15234 0.70312 0.36328h0.011719l0.027344-0.30469h0.69531" style="fill:#6b8a3a"/>
 </g>
 <path d="m47.719 44.203c-0.42188-0.003906-0.74609 0.097656-0.74609 0.40625 0 0.20312 0.13672 0.30469 0.3125 0.30469 0.20312 0 0.36719-0.13281 0.41797-0.29297 0.011719-0.042969 0.015625-0.089844 0.015625-0.13672zm0.09375 1.2148-0.046875-0.25391h-0.015625c-0.16797 0.20312-0.42969 0.3125-0.73438 0.3125-0.52344 0-0.83594-0.37891-0.83594-0.78906 0-0.66797 0.60156-0.98828 1.5117-0.98438v-0.035156c0-0.13672-0.074218-0.33203-0.46875-0.33203-0.26172 0-0.54297 0.089843-0.71094 0.19531l-0.14453-0.51562c0.17578-0.10156 0.53125-0.22656 1-0.22656 0.85547 0 1.1289 0.50391 1.1289 1.1094v0.89453c0 0.24609 0.011719 0.48438 0.039062 0.625h-0.72266" style="fill:#6b8a3a"/>
 <path d="m49.156 43.668c0-0.32031-0.011719-0.59375-0.019531-0.82031h0.69141l0.039063 0.35156h0.015625c0.10156-0.16406 0.36719-0.41016 0.79297-0.41016 0.52734 0 0.92188 0.34766 0.92188 1.1055v1.5234h-0.80078v-1.4219c0-0.33203-0.11719-0.5625-0.40625-0.5625-0.21875 0-0.35156 0.15625-0.40625 0.30078-0.019531 0.050781-0.027344 0.12891-0.027344 0.19922v1.4844h-0.80078v-1.75" style="fill:#6b8a3a"/>
 <path d="m52.266 42.848h0.80078v2.5703h-0.80078zm0.82812-0.71484c0 0.21875-0.17188 0.39844-0.43359 0.39844-0.25391 0-0.42188-0.17969-0.41797-0.39844-0.003907-0.23438 0.16406-0.40625 0.42188-0.40625 0.25781 0 0.42188 0.17188 0.42969 0.40625" style="fill:#6b8a3a"/>
 <path d="m55.664 45.355c-0.14062 0.0625-0.41016 0.11719-0.71484 0.11719-0.83203 0-1.3633-0.50391-1.3633-1.3164 0-0.75 0.51562-1.3672 1.4727-1.3672 0.21094 0 0.44531 0.035156 0.60938 0.097656l-0.125 0.59766c-0.09375-0.042969-0.23438-0.078125-0.44531-0.078125-0.42188 0-0.69531 0.29688-0.69141 0.71875 0 0.47266 0.31641 0.72266 0.70703 0.72266 0.1875 0 0.33594-0.035156 0.45703-0.082031l0.09375 0.58984" style="fill:#6b8a3a"/>
 <path d="m58.051 41.875v2.0391c0 0.60938 0.23047 0.92188 0.64062 0.92188 0.41797 0 0.65234-0.29297 0.65234-0.92188v-2.0391h0.80078v1.9883c0 1.0938-0.55078 1.6133-1.4805 1.6133-0.89453 0-1.4219-0.49219-1.4219-1.625v-1.9766h0.80859" style="fill:#6b8a3a"/>
 <path d="m60.836 44.719c0.14453 0.089844 0.44922 0.19531 0.6875 0.19531 0.24219 0 0.34375-0.082032 0.34375-0.21484 0-0.13281-0.082032-0.19531-0.38281-0.29688-0.52734-0.17578-0.73438-0.46484-0.73047-0.77344 0-0.47656 0.41016-0.83984 1.0469-0.83984 0.30078 0 0.57031 0.066406 0.72656 0.14844l-0.14062 0.55078c-0.11719-0.0625-0.33984-0.14844-0.55859-0.14844-0.19531 0-0.30469 0.078125-0.30469 0.21094 0 0.12109 0.097656 0.18359 0.41406 0.29688 0.48828 0.16797 0.69531 0.41406 0.70312 0.79297 0 0.48047-0.38281 0.83203-1.1172 0.83203-0.33984 0-0.63672-0.074218-0.83203-0.17969l0.14453-0.57422" style="fill:#6b8a3a"/>
 <path d="m64.707 43.84c0-0.19531-0.085937-0.51953-0.45312-0.51953-0.33594 0-0.47266 0.30469-0.49219 0.51953zm-0.94141 0.54688c0.027344 0.33203 0.35156 0.49219 0.72656 0.49219 0.27344 0 0.49219-0.039062 0.70703-0.10547l0.10547 0.53906c-0.26172 0.10547-0.58203 0.16016-0.92969 0.16016-0.87109 0-1.3711-0.50391-1.3711-1.3086 0-0.65625 0.40234-1.375 1.2969-1.375 0.83203 0 1.1484 0.64453 1.1484 1.2812 0 0.14062-0.015625 0.26172-0.027344 0.31641h-1.6562" style="fill:#6b8a3a"/>
 <g clip-path="url(#clip2)">
  <path d="m75.969 7.1836c0 0.83203-0.65234 1.3984-1.6836 1.3984h-0.039062c-1.0312 0-1.6758-0.56641-1.6758-1.3984v-0.19531c0-0.83594 0.64453-1.4023 1.6758-1.4023h0.039062c1.0312 0 1.6836 0.56641 1.6836 1.4023zm-1.6836-1.8828h-0.039062c-1.1914 0-1.9727 0.66406-1.9727 1.6875v0.19531c0 1.0234 0.78125 1.6875 1.9727 1.6875h0.039062c1.1914 0 1.9844-0.66406 1.9844-1.6875v-0.19531c0-1.0234-0.79297-1.6875-1.9844-1.6875" style="fill:#6b8a3a"/>
 </g>
 <path d="m74.75 6.7383c0 0.19922-0.12891 0.31641-0.35547 0.31641h-0.35938c-0.10938 0-0.12891-0.027344-0.12891-0.097657v-0.46484c0-0.070313 0.03125-0.11328 0.12891-0.11328h0.35938c0.23828 0 0.35547 0.14062 0.35547 0.32812zm-0.35547-0.625h-0.70312c-0.050781 0-0.089843 0.019532-0.089843 0.097657v1.668c0 0.078125 0.039062 0.097657 0.089843 0.097657h0.12891c0.046875 0 0.085937-0.019532 0.085937-0.097657v-0.44531c0-0.070313 0.03125-0.10156 0.12891-0.10156h0.30078c0.058593 0 0.078125 0.019532 0.097656 0.0625l0.24609 0.52344c0.023437 0.039062 0.039062 0.058594 0.082031 0.058594h0.17969c0.097657 0 0.13672-0.058594 0.089844-0.13672l-0.28906-0.50781c-0.03125-0.046875-0.011719-0.078125 0.019531-0.089843 0.14844-0.066407 0.30859-0.24609 0.30859-0.46484v-0.039063c0-0.37891-0.26172-0.625-0.67578-0.625" style="fill:#6b8a3a"/>
 <path d="m64.055 34.062c0-1.2656-0.71484-1.8672-1.8672-1.8672-0.28906 0-0.48828 0.027343-0.60156 0.054687v3.8477c0.11328 0.023438 0.30469 0.023438 0.46094 0.023438 1.2148 0.007812 2.0078-0.65234 2.0078-2.0586" style="fill:#6b8a3a"/>
 <path d="m41.445 27.441v-17.93h-0.12109l-8.1289 9.8945-8.2266-9.8945h-0.125v17.93h2.5v-11.395l5.7266 7.1562h0.125l5.75-7.1562v11.395h2.5" style="fill:#6b8a3a"/>
 <path d="m49.203 20.879h-1.5625v-8.5508h1.5625c3.2188 0 4.5586 1.6016 4.5586 4.2617 0 2.6875-1.3125 4.2891-4.5586 4.2891m7.2852-4.2891c0-4.0547-2.5547-6.7148-7.1875-6.7148h-4.3125v17.566h2.6523v-4.1875h1.6602c0.42188 0 0.84375-0.023437 1.2148-0.078125l2.875 4.2656h3.1484l-3.4219-4.9883c2.207-1.0586 3.3711-3.1523 3.3711-5.8633" style="fill:#6b8a3a"/>
 <path d="m59.492 25.723v1.9219h5.9531v-1.9219h-1.6289v-13.934h1.6562v-1.918h-5.9531v1.918h1.6445v13.934h-1.6719" style="fill:#6b8a3a"/>
 <path d="m13.223 12.148c3.4961 0 5.9492 2.7891 5.9492 6.5078 0 3.7227-2.4531 6.5078-5.9492 6.5078-3.4922 0-5.9453-2.7852-5.9453-6.5078 0-3.7188 2.4531-6.5078 5.9453-6.5078m0 15.523c4.832 0 8.6992-3.8242 8.6992-9.0156s-3.8672-9.0156-8.6992-9.0156c-4.832 0-8.6992 3.8242-8.6992 9.0156s3.8672 9.0156 8.6992 9.0156" style="fill:#6b8a3a"/>
 <path d="m5.168 31.219h1.3281v4.7656h2.3359v1.1133h-3.6641zm11.258 0h1.3281v5.8789h-1.3281zm10.746 3.4219c-0.97656-0.35156-1.625-0.89062-1.625-1.7578 0-1 0.85156-1.7617 2.2266-1.7617 0.67188 0 1.1523 0.13281 1.5 0.29688l-0.29688 1.0664c-0.22656-0.11328-0.65234-0.28125-1.2188-0.28125-0.57812 0-0.85547 0.27344-0.85547 0.57031 0 0.375 0.32031 0.53906 1.0898 0.83594 1.0391 0.38281 1.5195 0.92578 1.5195 1.7617 0 0.98828-0.75 1.8242-2.3672 1.8242-0.67188 0-1.332-0.18359-1.6641-0.36719l0.26953-1.0898c0.34766 0.18359 0.90625 0.36719 1.4727 0.36719 0.61328 0 0.93359-0.25391 0.93359-0.64453 0-0.35938-0.27734-0.57812-0.98438-0.82031m9.6016-3.4219h4.5195v1.1172h-1.6055v4.7617h-1.3281v-4.7617h-1.5859zm12.035 0h3.6211v1.0898h-2.293v1.2227h2.1602v1.082h-2.1602v1.3945h2.4141v1.0898h-3.7422zm11.449 0.085938c0.48828-0.085938 1.1289-0.12891 1.7891-0.12891 1.125 0 1.8594 0.18359 2.418 0.60938 0.60938 0.45312 0.99219 1.1875 0.99219 2.2344 0 1.125-0.41016 1.9023-0.96875 2.3828-0.61719 0.51172-1.5703 0.75781-2.7188 0.75781-0.69141 0-1.1875-0.042968-1.5117-0.085937zm3.6992-27.402h-33.512c-0.09375-0.19922-0.23828-0.37891-0.40234-0.57422-0.38281-0.42969-0.95703-0.92578-1.5742-1.3594-0.58203-0.39062-1.043-0.69922-1.5039-0.72656-0.078125 0-0.19922 0.011718-0.32422 0.10156-0.12891 0.089844-0.19141 0.25391-0.19141 0.36719v0.046875c0.039062 0.46484 0.33984 0.76562 0.6875 1.1133 0.0625 0.0625 0.125 0.125 0.1875 0.19531 0.17578 0.16406 0.35938 0.33203 0.53516 0.48828 0.14062 0.12891 0.27734 0.25 0.39453 0.36328-0.47266-0.003906-1.1875-0.019531-2.1211-0.0625-0.082032-0.15234-0.1875-0.30469-0.30078-0.45703-0.33594-0.42969-0.83594-0.92188-1.375-1.3555l-0.097656-0.078125c-0.46484-0.35547-0.82812-0.63281-1.2383-0.66797-0.16406-0.019531-0.47266 0.17188-0.47266 0.39844-0.003907 0.019531-0.007813 0.054687-0.007813 0.09375 0.015625 0.31641 0.17188 0.53125 0.35156 0.78125l0.011718 0.011718c0.22656 0.29688 0.53516 0.62109 0.80469 0.90625 0.0625 0.066407 0.125 0.13281 0.18359 0.19531 0.019531 0.019531 0.039062 0.042969 0.058593 0.0625-0.71484-0.046875-1.4648-0.10156-2.2422-0.16406-0.16406-0.45703-0.55469-0.94922-0.94141-1.4102-0.25781-0.29688-0.53125-0.57812-0.77344-0.78516-0.035156-0.027344-0.066406-0.054688-0.10156-0.078125-0.20312-0.16797-0.36328-0.29688-0.63281-0.32031-0.14844-0.023437-0.39062 0.14062-0.41406 0.3125-0.015625 0.050782-0.023438 0.10156-0.023438 0.16016 0.027344 0.41016 0.30469 0.79688 0.60156 1.2031 0.050781 0.070312 0.097656 0.14062 0.15234 0.21094l0.11328 0.15625c0.10547 0.14062 0.20312 0.27344 0.28516 0.39062-0.83594-0.082031-1.6172-0.16406-2.3867-0.25-0.13672-0.41406-0.46875-0.86719-0.77734-1.2656-0.21875-0.26953-0.4375-0.51172-0.63672-0.69531-0.035157-0.027344-0.0625-0.054688-0.089844-0.078125-0.16797-0.14453-0.29688-0.25781-0.53516-0.28125-0.12891-0.023438-0.33594 0.11328-0.35938 0.26172-0.015625 0.046875-0.023438 0.10156-0.023438 0.16016 0.019531 0.35156 0.24609 0.69141 0.48438 1.0547 0.035156 0.058594 0.078125 0.11328 0.11328 0.17578l0.054688 0.078125c0.074219 0.10938 0.14844 0.21484 0.21094 0.3125-0.76172-0.15625-1.457-0.32031-2.0742-0.48828-0.078125-0.35547-0.34766-0.76562-0.62891-1.1562-0.17188-0.23438-0.34766-0.4375-0.50391-0.59375-0.023437-0.023437-0.050781-0.046875-0.074219-0.066406-0.12891-0.125-0.23438-0.21875-0.4375-0.24219h-0.023437c-0.11719 0-0.25781 0.10938-0.27734 0.21484-0.015625 0.042969-0.023437 0.09375-0.023437 0.15234 0.011718 0.28906 0.1875 0.57812 0.37109 0.88672l0.082032 0.14062c0.058593 0.085937 0.10938 0.17188 0.16016 0.25-0.46094-0.16016-0.85547-0.32031-1.1992-0.48828-0.50781-0.53125-2.1836-1.5039-2.8984-1.5039-0.15625 0-0.26562 0.046875-0.32031 0.13672-0.054687 0.089844-0.046875 0.19922 0.023438 0.32812 0.33984 0.60156 2.0898 1.5312 2.9062 1.543 0.37891 0.17969 0.81641 0.35938 1.3125 0.53125-0.125 0.0625-0.25781 0.13281-0.39062 0.19531-0.23438 0.11719-0.40625 0.20703-0.53906 0.28906-0.027344 0.019531-0.054687 0.035156-0.078125 0.054687-0.12109 0.074219-0.22266 0.14062-0.29297 0.31641-0.003906 0.019532-0.011718 0.042969-0.011718 0.082032-0.003907 0.15625 0.13281 0.26562 0.19922 0.28125 0.070313 0.023437 0.125 0.023437 0.18359 0.027343 0.28125-0.003906 0.77344-0.125 1.3164-0.32031l0.042969-0.015625c0.37891-0.15234 0.71094-0.28516 0.92969-0.49219 0.625 0.17188 1.3203 0.33594 2.0742 0.49219-0.15625 0.089844-0.33984 0.19141-0.53906 0.30078-0.21875 0.12109-0.44922 0.25391-0.63672 0.375-0.03125 0.023438-0.0625 0.046875-0.089844 0.066406-0.13672 0.097657-0.25781 0.18359-0.32812 0.38672l-0.003906 0.015625c-0.003906 0.015625-0.007812 0.039063-0.007812 0.074219-0.007813 0.16016 0.125 0.29688 0.21875 0.32031 0.078125 0.03125 0.14062 0.03125 0.20703 0.035157 0.32422-0.007813 0.89844-0.16406 1.582-0.4375l0.10156-0.046875c0.51953-0.23047 0.97266-0.43359 1.1953-0.77344 0.65234 0.11328 1.3359 0.21484 2.0273 0.3125-0.15234 0.09375-0.3125 0.1875-0.46484 0.28125-0.23828 0.14453-0.50781 0.3125-0.72266 0.46875-0.035156 0.03125-0.074219 0.058594-0.10547 0.082031-0.15234 0.12109-0.28516 0.22266-0.35938 0.46484l-0.019531 0.070313h0.011719v0.007812c-0.011719 0.16797 0.13281 0.32812 0.23047 0.35547 0.09375 0.042969 0.16797 0.042969 0.23438 0.046875 0.46094-0.011719 1.2422-0.31641 1.8203-0.57031l0.125-0.0625c0.57422-0.27734 1.0664-0.51953 1.3281-0.89062 0.76172 0.085938 1.5117 0.15625 2.2344 0.21875-0.18359 0.15234-0.40625 0.32812-0.63672 0.50781-0.24219 0.1875-0.51562 0.41016-0.73828 0.61328-0.035156 0.039063-0.074219 0.074219-0.10547 0.10938-0.14062 0.13672-0.26172 0.25781-0.31641 0.48828h-0.015625v0.054688c0 0.007812-0.003906 0.023437-0.003906 0.046875-0.011719 0.12891 0.089843 0.30469 0.20703 0.36719 0.10156 0.058594 0.1875 0.066407 0.26953 0.066407 0.49219-0.023438 1.2695-0.4375 1.9648-0.83984 0.40234-0.23828 0.75781-0.48438 1.0312-0.71094 0.19922-0.17578 0.38672-0.33984 0.50781-0.55078 0.67578 0.035156 1.3203 0.058594 1.8711 0.070313-0.17188 0.16016-0.36328 0.33203-0.54688 0.49609-0.25781 0.24219-0.53125 0.49609-0.74219 0.72266-0.035157 0.042968-0.070313 0.082031-0.10156 0.12109-0.15625 0.17578-0.28906 0.32812-0.32031 0.62891-0.003907 0.11719 0.066406 0.29688 0.19141 0.37891s0.23047 0.085937 0.30078 0.085937c0.28516-0.015625 0.53516-0.13672 0.875-0.3125l0.042969-0.019531c0.55469-0.29688 1.1992-0.72266 1.7227-1.1406l0.078125-0.0625c0.40234-0.34375 0.75-0.64062 0.92578-1.0039h33.5c3.043 0.003906 5.5273 2.4844 5.5312 5.5312v18.828h-68.723v-18.828c0.003906-3.0469 2.4844-5.5273 5.5352-5.5312h0.054688v-0.76562h-0.054688c-3.4766 0-6.3008 2.8242-6.3008 6.2969v22.664c0 3.4727 2.8242 6.3008 6.3008 6.3008h57.656c3.4727 0 6.2969-2.8281 6.2969-6.3008v-22.664c0-3.4727-2.8242-6.2969-6.2969-6.2969" style="fill:#6b8a3a"/>
</svg>
